<?xml version="1.0" encoding="utf-8"?>
<!-- Mortal Kombat Logo Remaster - by Davis Newell github.com/pixelpath  -->
<!-- Original logo by John Tobias (Concept and Design) and Paul Niemeyer (Final Line Art)  -->
<!-- Generator: Adobe Illustrator 25.0.0, SVG Export Plug-In . SVG Version: 6.00 Build 0)  -->
<svg version="1.1" id="mk-dragon" xmlns="http://www.w3.org/2000/svg" xmlns:xlink="http://www.w3.org/1999/xlink" x="0px" y="0px"
	 viewBox="0 0 300 300" width="300" height="300" style="enable-background:new 0 0 300 300;" xml:space="preserve">
<style type="text/css">
	.st0{fill:url(#bg-gradient_1_);}
</style>
<radialGradient id="bg-gradient_1_" cx="157.697" cy="276.6667" r="193.6357" gradientTransform="matrix(0.9895 0 0 -0.9895 14.2355 294.4297)" gradientUnits="userSpaceOnUse">
	<stop  offset="0" style="stop-color:#EEDE10"/>
	<stop  offset="1" style="stop-color:#F53929"/>
</radialGradient>
<circle id="bg-gradient" class="st0" cx="150" cy="150" r="145"/>
<path id="dragon_4_" d="M150,0C60.5,0-10.8,78.5,1.3,170.4c8.8,66.8,61.5,119.5,128.3,128.3C221.5,310.8,300,239.5,300,150
	C300,67.2,232.8,0,150,0z M101.5,29.9c1,0.9,0.9-2.6-3.8-5.9c2.4-1,4.9-1.9,7.3-2.8c-2,12.6,9.4,17.5,11.2,18.9
	c-0.7,1.2-8.3-0.1-14.5-1.3c-6.2-1.1-10.3-0.6-12.7-1.9C84.3,34.3,93.1,22.4,101.5,29.9z M124.5,250.3c-3.2,14.4-39.9,15-68.3-1
	C-8.2,188.5,1.3,81,79,33.5c0.1,1.8,0.4,3.4,1.4,4.7c2.8,5.4,16.2,6.3,18.5,8.4c-0.2,2.5-13.4,0.1-28.5,5.3
	c-9.9,3.4-17.4,13.8-22.9,24c-2.5,4.7-7.4,4.2-8.1-0.9c-0.2-1-1.9-0.9-2.6,1.1c-3.2,8.7,7.4,11,4.6,13.8
	c-9.6,9.6-11.5,17.5-11.5,40.2c0.1,41.6-10.7,37.2-12.5,37.7c-1.2,0.3-1.2,1.8-0.7,2.2c8.1,5.5,15.9,4.5,21.5-3.1
	c0.9-1.2,1.7-0.2,1.9,0.6c3.9,18.1,17.3,30.2,18,32.3c0.8,2.5-0.9,3.1-0.8,8.1c0,6.6,3.3,16.3-1.6,19.7c-3.5,2.4-7.7,0.3-10.9-1.7
	c-1.2-0.7-1.2,1.5-0.5,2.5c6.1,8.9,16.3,8.8,19.6,5.3c6.3-5.4,1.6-23.5,11.9-17.5c4,2.4,4.2,4.4,5.1,9.8c1.4,8.5,2.9,8.5,2.9,11
	c0,2.9-1.9,3.7-2.3,4.1c-0.6,0.7,0.1,1.5,0.8,1.4c3.5-0.7,4.4-2.5,5.7-5.3c2.4-5,1.6-8.5,3-8.8s2.2,1,5.6,2.2
	C105.4,233.8,128.3,233.6,124.5,250.3z M206.3,68.7c-12.3-23.8-22.6-14.9-25.9-16.8c-1.4-0.8-1.1-6.4-5.8-9.9
	c-4.9-3.6-27.6,1.4-30.1-2.6c-1.2-2,2.3-4.2,2.3-5.4c0-0.8-0.8-1.5-1.8-1c-6.5,3.3-5.9,8.5-9.7,7.9c-1.6-0.2-2.7-3.2-8-3.7
	c-6-0.6-11.2-4.7-12.7-9.3c-2.6-11,17.3-16.6,19.8-5.7c0.2,1,2.1,0.9,1.5-2.9c-0.1-1.8-0.8-3.3-1.8-4.6
	C260.2-0.4,334.6,149.8,250.9,241.8c9.8-24.9,7.6-42.4-14.6-65c-33-33.7-73.8-9.2-112.1-16.6c-27.5-5.3-31.3-32.9-22.6-40.4
	c3.5-3-1.1-5.1-1.1-5.2c-4.4-3.3-3.8-14.2-3-15.9c0.5-1.1,2.1-1.6,2-0.6c-1,12,4.8,22.5,17.1,23c15.3,0.5,26.3-12.3,34-10.7
	c29.4,5.8,41.1,33.3,50.4,33.3c15.4-0.1,23.7,7.6,33-3.4c1.3-1.6,2.5-0.1,3,1.8c0.7,2.9,5.5,43.7,24.5,50.3
	c6.4,2.6,15.3,0.3,18.4-8.3c0.4-1.1-0.3-1.9-0.7-1.6c-6.7,5.4-11.1,5.4-14.7,4.4c-5.3-1.9-7.6-6.8-6.8-7.7c0.6-0.7,1.8,0.1,4.8,0.9
	c11.4,3,20.7-4.8,21.3-14c0.7-11.3-6.1-14.2-11.5-13.4c-0.7,0.1-0.7,1.1,0,1.2c10.2,1.8,8.7,21.7-5.5,21.2
	c-21.6-0.8-17-28.2-28.5-43c-4.2-5.4-11.6-7.7-2-7.1c5.2,0.3,6.5,4,6,6.6c-0.5,2.7,6.3,0.5,5.2-7.2c-0.4-3,2.1-2,2.2-3.7
	c0.1-1.7-0.9-2.7,0.3-4.7c1.6-2.8,2.5-3.1,2.4-4.8c-0.2-2.8-3.9-4.7-4-5.6s3.8,0.1,4.6,0.4c1,0.4,3.3-0.1,1.7-2.5
	c-2.6-4.1-5.9-9.6-11.4-10.2c-5.4-0.6-4,3.2-10.9,1.8c-7.9-1.6-11-8.3-18-7.8c-1.9,0.1-6.4,1.6-13.2-6.9c-3.5-4.3-6.4-5.4-5.3-7
	c1.4-2,5-2.8,8.3-2.5C205.6,71,207,70.2,206.3,68.7z M217.8,121.5c2.7,0.5,0.1,3,2.1,12.1c0.2,0.8-0.4,1.6-1.3,1.6
	c-17.9,0.3-42.8-22.7-55.7-30c-9.5-5.4-14-3.5-14.2-6.1s10.3-9.9,18.3-9.2C185.2,91.4,198.5,117.6,217.8,121.5z M210.8,99.1
	c4-2.9,14.7,1.7,12.8,2.8c-1,0.6-2.6-0.3-8.7,2.2c-3.2,1.3-3.6,1.6-5.1-1.4C209,101,210,99.9,210.8,99.1z M175.3,74.3
	c-0.9,2.7-17.1-3.8-23.2-4.1c-3.8-0.2-7.5,2.2-7.6,0c0-1.9,7.5-12.2,21.7-1.3C173.5,74.4,175.7,73.2,175.3,74.3z M225.5,128.9
	c2.7-0.5,5.5,0.7,7.1,3.1c1.4,2,0.1,2.4-2.5,3.4C226.5,136.9,222.2,130.2,225.5,128.9z"/>
</svg>
