<?xml version="1.0" encoding="utf-8"?>
<!-- Generator: Adobe Illustrator 25.0.0, SVG Export Plug-In . SVG Version: 6.00 Build 0)  -->
<svg version="1.1" id="mk-dragon" xmlns="http://www.w3.org/2000/svg" xmlns:xlink="http://www.w3.org/1999/xlink" x="0px" y="0px"
	 viewBox="0 0 300 300" width="300" height="300" style="enable-background:new 0 0 300 300;" xml:space="preserve">
<style type="text/css">
	.st0{fill:url(#bg-gradient_1_);}
</style>
<radialGradient id="bg-gradient_1_" cx="689.566" cy="788.3378" r="383.221" gradientTransform="matrix(0.5 0 0 0.5 -174.5 -373.5)" gradientUnits="userSpaceOnUse">
	<stop  offset="0" style="stop-color:#FDE700"/>
	<stop  offset="1" style="stop-color:#DD3027"/>
</radialGradient>
<circle id="bg-gradient" class="st0" cx="150" cy="150" r="145"/>
<path id="dragon" d="M150,0C60.5,0-10.8,78.5,1.4,170.4c8.8,66.8,61.5,119.5,128.3,128.3C221.5,310.8,300,239.4,300,150
	C300,67.2,232.8,0,150,0z M101.7,115.4c-0.4-0.4-0.5-0.3-1.3-0.8c-4.4-3.3-3.8-14.2-3-16c0.5-1.1,2.1-1.6,2-0.6
	c-1,12,4.8,22.5,17.1,23c15.3,0.5,26.3-12.3,34-10.7c29.4,5.8,41.1,33.3,50.4,33.3c15.4-0.1,23.7,7.6,33-3.4c1.3-1.6,2.5-0.1,3,1.8
	c0.7,2.9,5.5,43.7,24.5,50.3c6.4,2.6,15.3,0.3,18.4-8.3c0.4-1.1-1.7-1.4-2.1-1c-4.6,4.3-10.5,4.7-14.1,3.7c-4.8-1.8-6.8-6.7-6-7.6
	c0.6-0.7,1.8,0.1,4.8,0.9c11.4,3,20.7-4.8,21.3-14c0.8-12.3-7.6-15.2-12.8-12.8c-0.2,0.1-0.2,0.5,0.1,0.5
	c11.2,0.7,10.4,21.9-4.3,21.3c-21.6-0.8-17-28.2-28.5-43c-4.2-5.4-11.6-7.7-2-7.1c5.2,0.3,6.5,4,6,6.6c-0.5,2.7,6.3,0.5,5.2-7.2
	c-0.4-3,2.1-2,2.2-3.7c0.1-1.7-0.9-2.7,0.3-4.7c1.6-2.8,2.5-3.1,2.4-4.8c-0.2-2.8-3.9-4.7-4-5.6s3.8,0.2,4.6,0.4
	c0.6,0.2,1,0.1,1.2-0.2c1,0,1.2-1.2,0.5-2.3c-2.6-4.1-5.9-9.6-11.4-10.2c-5.4-0.6-4,3.2-10.9,1.8c-7.9-1.6-11-8.3-18-7.8
	c-1.9,0.1-6.4,1.6-13.2-6.9c-3.5-4.3-6.4-5.4-5.3-7c1.4-2,5.6-2.9,8.8-2.7c0.8,0.1,1.4-0.3,1.5-0.8c0.4-0.2,0.5-0.6,0.3-1
	c-12-24-22.6-14.9-25.9-16.8c-1.4-0.8-1.1-6.4-5.8-9.9c-5.3-3.9-31.7,2.4-30.5-4c0.4-2.3,3.4-3.3,2.4-4.1c0.6-0.8-0.5-1.3-1.6-0.8
	c-6.6,3-5.9,8.5-9.7,7.9c-1.6-0.2-2.7-3.2-8-3.7c-6-0.6-11.2-4.7-12.7-9.3c-2.6-11,17.3-16.6,19.8-5.7c0.2,1,2.1,0.9,1.5-2.9
	c-0.1-1.8-0.8-3.3-1.8-4.6C259.9-0.2,334.2,149.3,251,241.4c9.6-24.7,7.3-42.1-14.8-64.6c-33-33.7-73.8-9.2-112.2-16.6
	c-27.5-5.3-31.3-32.9-22.6-40.4C102.9,118.5,103.2,116.3,101.7,115.4z M217.8,121.5c2.7,0.5,0.1,3,2.1,12.1c0.2,0.8-0.5,1.3-1.3,1.6
	c-14.6,2.2-42.6-23.1-55.7-30.1c-9.7-5.2-13.5-3.6-14.2-6.1c0.4-2.5,10.3-9.9,18.3-9.2C185.2,91.4,198.6,117.6,217.8,121.5z
	 M210.8,99.1c4-2.9,12.9,1.7,12.8,2.8c-0.7,0.1-5.1,0.2-8.4,2.2c-2.8,1.7-3.9,1.5-5.1-1.7C209.7,101.1,210,99.9,210.8,99.1z
	 M175.3,74.3c-0.9,2.7-18.2-4.2-23.5-4.7c-3.8-0.3-5.8,1.7-7.3,0.1c0.8-2.3,7.7-11.4,22.7-0.4C174.7,74.8,175.7,73.2,175.3,74.3z
	 M225.5,128.9c2.7-0.5,5.5,0.7,7.1,3.1c1.4,2,0.1,2.4-2.5,3.4C226.5,136.9,222.2,130.2,225.5,128.9z M116.3,40.1
	c-0.7,1.2-8.3-0.1-14.5-1.3c-6.2-1.1-10.3-0.6-12.7-1.9c-4.7-2.6,4.5-14.9,12.5-7c1,1,1-2.7-3.9-5.9c2.4-1,4.9-2,7.4-2.8
	C103.1,33.8,114.6,38.7,116.3,40.1z M79.1,33.4c0.1,1.8,0.3,3.5,1.4,4.9c2.8,5.4,16.2,6.3,18.5,8.4c-0.2,2.5-13.4,0.1-28.5,5.3
	c-9.9,3.4-17.4,13.8-22.9,24c-2.5,4.7-7.9,3.5-7.8-0.9c0-1-2.2-0.9-2.9,1.1c-3.2,8.7,7.4,11,4.6,13.8c-9.6,9.6-11.9,17.9-11.5,40.5
	c0.4,22.2-3.2,36.2-10.4,37.7c-1.1,0.1-1.3-0.2-1.8,0.1c-1.5-0.1-1.7,1.2-1,1.8c8.2,6.2,15.9,4.5,21.5-3.1c0.9-1.2,1.7-0.2,1.9,0.6
	c3.9,18.1,17.3,30.2,18,32.3c0.8,2.5-1.3,2.6-1.2,7.6c0,6.6,3.4,16.3-0.4,20c-3.5,2.5-8.6,0.7-12.2-1.6c-0.5-0.3-1.4,0.9-0.6,2.1
	c5.6,9.3,16.2,9.4,19.5,5.9c6.3-5.4,2.3-23.6,12.6-17.6c4,2.4,3.6,4.4,4.6,9.8c1.7,9.5,4.3,10.2,2.1,13.7c-1,1.2-1.4,1.3-1.4,1.7
	c-1,1,0.1,1.6,0.8,1.4c7.3-1.9,7.3-13.9,9.1-14.3c2.3-0.5,2.3,1.9,8.7,3c16.8,3,28,7.2,24.9,18.9c-3.4,12.4-21.3,11.1-34.8,10.2
	c-10.5-0.7-23.4-5-34.1-11.5C-8.9,187.4,2,80.3,79.1,33.4z"/>
</svg>
