<?xml version="1.0" encoding="utf-8"?>
<!-- Mortal Kombat Logo Remaster - by Davis Newell github.com/pixelpath  -->
<!-- Original logo by John Tobias (Concept and Design) and Paul Niemeyer (Final Line Art)  -->
<!-- Generator: Adobe Illustrator 25.0.0, SVG Export Plug-In . SVG Version: 6.00 Build 0)  -->
<svg version="1.1" xmlns="http://www.w3.org/2000/svg" xmlns:xlink="http://www.w3.org/1999/xlink" x="0px" y="0px"
	 viewBox="0 0 3840 2160" style="enable-background:new 0 0 3840 2160;" xml:space="preserve">
<style type="text/css">
	.st0{fill:url(#SVGID_1_);}
	.st1{fill:url(#SVGID_2_);}
	.st2{fill:#151515;}
	.st3{fill:#0D0D0D;}
	.st4{fill:url(#SVGID_3_);}
	.st5{fill:url(#SVGID_4_);}
	.st6{fill:url(#SVGID_5_);}
	.st7{fill:url(#SVGID_6_);}
	.st8{fill:url(#SVGID_7_);}
	.st9{fill:url(#SVGID_8_);}
	.st10{fill:url(#SVGID_9_);}
	.st11{fill:url(#SVGID_10_);}
	.st12{fill:url(#SVGID_11_);}
	.st13{fill:#101010;}
	.st14{opacity:0.7;}
	.st15{fill:url(#SVGID_12_);}
	.st16{opacity:0.35;}
	.st17{fill:#D4D4D4;}
	.st18{fill:#070707;}
	.st19{fill:url(#SVGID_13_);}
	.st20{fill:url(#SVGID_14_);}
</style>
<g id="bg-gradient_copy">
	<linearGradient id="SVGID_1_" gradientUnits="userSpaceOnUse" x1="3679.8188" y1="-346.052" x2="723.5798" y2="2047.863">
		<stop  offset="0" style="stop-color:#97201A"/>
		<stop  offset="1" style="stop-color:#000000"/>
	</linearGradient>
	<rect y="-1" class="st0" width="3840" height="2160"/>
</g>
<g id="sun-gradient">
	<radialGradient id="SVGID_2_" cx="1973.1154" cy="604.8024" r="615.1359" gradientUnits="userSpaceOnUse">
		<stop  offset="0" style="stop-color:#FCE703"/>
		<stop  offset="1" style="stop-color:#BA2F27"/>
	</radialGradient>
	<circle class="st1" cx="1908" cy="1020" r="465.5"/>
</g>
<g id="ring">
	<path class="st2" d="M1908,553.5c-279.1,0-501.1,244.6-463.3,531.1c27.4,208,191.8,372.4,399.8,399.8
		c286.5,37.7,531-184.3,531-463.3C2375.5,762.8,2166.2,553.5,1908,553.5z M1846.3,1471.5c-202.3-26.6-362.1-186.4-388.8-388.7
		c-36.7-278.6,179.1-516.4,450.5-516.4c251.1,0,454.6,203.5,454.6,454.6C2362.6,1292.4,2124.8,1508.2,1846.3,1471.5z"/>
</g>
<g id="dragon">
	<g>
		<path class="st3" d="M1908.7,521c-298.5,0-535.9,261.6-495.5,568c29.3,222.5,205.1,398.3,427.6,427.6
			c306.4,40.3,567.9-197.1,567.9-495.5C2408.7,744.9,2184.9,521,1908.7,521z M1762.3,621.3c12,26.7,38.9,28.2,33.2,34
			c-3,3.2-24.6-2.5-49-6c-21.3-3.1-33.6,0.2-39.8-5.5c-8.9-8.1-2.7-25,13.3-29c8.6-2.2,19.7-0.7,26.9,5c7.7,6-0.2-18-25.5-23.1
			c-2.8-0.6,1-1.4,3.2-2.3c10.9-4.4,23.5-8.9,35.7-12.1c0.9-0.2,2.7-0.4,2.3,0.4C1756.9,594.1,1757.3,610.3,1762.3,621.3z
			 M1660.5,630.1c4.6-2.8,10.5-0.2,11.6,5.1c2.5,12.4,5.7,16.1,12,20.5c15.9,11.1,39.9,15.2,50,18.7c7.5,2.5,4.8,3.3,1,4.4
			c-12.3,3.5-47.3,0.2-89,14.5c-32.9,11.3-58.6,43.7-76.7,77.5c-8.5,15.8-28.9,20.4-28.5,0.3c0.1-4.1-8-0.4-9.1,3.1
			c-10.9,34.9,24.5,36.7,15.5,45.7c-31.8,31.9-40.4,59.1-39.1,134.2c1.4,80.1-11.8,129.2-40.3,127.1c-3.4-0.2-5,4-2.3,6
			c27.4,20.8,52.6,14.3,70.5-9.9c2.8-3.8,5.9-3.2,6.9,1.5c2.6,12,6.7,27.7,23,56.9c22.7,40.6,34.2,44.7,36.4,52
			c2.6,8.3-4.2,5.6-4,22.1c0.1,22.1,11.5,57-1.9,68.7c-11.6,10-27.8,2.9-40.4-5c-2.5-1.5-3.1,3.7-1.6,6.2c3.3,5.6,16.3,26,46.2,27.3
			c45.5,1.9,21.8-81.7,55.6-68.3c14.4,5.7,18,16.5,20.8,34.8c4.8,31.9,17,39.8,1.2,52.9c-2.2,1.8-0.4,5.4,2.4,4.7
			c27.8-7.1,22.7-46.7,32.5-47.4c7.9-0.6,7.7,6.1,28.9,9.9c55.6,9.8,89.2,20,82.3,61.2c-5.4,32.1-45.5,39.4-115.7,34.6
			c-53.5-3.7-127-34.3-162.4-77C1369.9,1099.5,1425.2,776.1,1660.5,630.1z M2235.2,1342.6c40.5-92,37.6-152.8-41-233
			c-109.4-111.5-243.7-29.9-371.8-54.6c-91.7-17.6-103.4-108.7-76.4-133.7c4.8-4.5,7.4-12.7,1.9-15.9c-8.3-4.8-13-11.9-14.6-20.6
			c-3.4-18.2-2.4-30.2-0.2-34.9c2.9-6.1,6.4-3.1,6.9,1.3c1.1,9-1.7,71.3,56.9,73.4c50.9,1.8,74.7-29.4,100.2-34.6
			c22.7-4.6,39.4,5.8,79.8,26.4c36,18.3,78.3,83.4,101.5,83.3c20.3-0.1,38.8,4.4,51.3,6.2c32.1,4.6,40.5,4.3,57.7-16.3
			c4.9-5.9,9.1-1.7,10.9,5.7c3.2,13.2,6.2,38.6,14.3,67.5c13.5,48,45.9,105.3,86.8,102.6c18.9-1.3,34.5-10.1,42.8-33
			c1.2-3.2-2.6-5.4-5.3-3.3c-52.3,41.5-74.9-10.2-70.2-10.8c3.6-0.5,21.8,6.4,39.2,5.3c23.2-1.5,47.5-23.5,49.2-50.5
			c2.5-39.3-27.4-48.9-43.6-41.4c-0.8,0.4-0.6,1.6,0.3,1.6c36.6,0.5,35.3,70.4-12.3,71c-74.7,0.9-58.3-93.1-97.1-143
			c-11.1-14.2-22.7-17.9-21.9-22.2c0.5-3.1,10.8-2.2,14.2-2.1c17.2,0.9,22.7,14.5,21.1,23c-1.8,9.2,21.6-0.5,18.2-24.3
			c-1.4-10.1,5.8-6.5,6.3-12.2c0.5-5.7-3-8.9,1-15.6c5.5-9.2,8.4-11.3,7.9-17c-0.8-9.2-11.8-14.4-12.3-17.5c-0.6-3.7,8.7-2,16.6,0.4
			c5,1.5,8.1-3,5.3-7.3c-8.7-13.5-21.5-32.7-39.8-34.7c-17.7-2-13.1,10.7-36.2,5.9c-26.1-5.5-34.3-27.5-57.5-25.9
			c-6.3,0.4-24.3,5.1-46.7-22.7c-13.3-16.6-22-18.1-16.5-25.8c4.8-6.6,20.1-6.5,29.4-6c2.8,0.2,5.8-3.7,4.6-6.2
			c-39.7-79.3-76-50.5-86.7-56.8c-4.5-2.6-2.5-20.2-18.3-31.8c-11.3-8.3-39-3.6-66.9-4.7c-16.6-0.7-35.4,3.1-33.2-11.6
			c0.5-3.6,2.7-6.6,5.4-9c3.7-3.1,0.1-8.6-3.6-6.6c-22.6,12.2-20.5,29-33.2,27.1c-5.4-0.8-4-9.4-21.5-11.2
			c-44.6-4.5-64.4-42-34.3-62.6c22.5-15.4,49.1-8.1,52.2,10.8c0.5,3,4.7,3.2,5.4,0.3c5.6-22.8-15.7-36.4-10.5-37
			c271.6-34.9,523.5,179.4,523,461.3c-0.3,183-103.1,297.5-134.8,327.5C2235.3,1350.2,2233,1347.7,2235.2,1342.6z M2134.6,925.9
			c8.9,1.8,0.3,10,6.9,40.4c0.9,4.2-5.7,5.1-10,4.7c-75-7-138.9-85-197.1-107.3c-21.9-8.4-29.1-3.5-29.3-12.4
			c-0.2-9.5,33-32.3,61.1-29.9C2027,826.6,2070.5,913.1,2134.6,925.9z M2117.8,848.4c13.6-3.5,45.3,12.6,34.1,13.4
			c-8.5,0.7-19,2.4-27,7.2c-9.3,5.6-12.9,4.9-16.9-5.7C2105.4,856.7,2109.1,850.7,2117.8,848.4z M1993.5,769.5
			c-7.9,9.4-61.3-12.9-78.7-14.4c-12.8-1.1-19.5,6-24.3-0.1c-1.9-2.3,20.8-43.5,75.7-2.8c9,6.6,19.6,12.6,25.9,14.1
			C1995.9,767.2,1994.6,768.1,1993.5,769.5z M2162.1,950.6c9.2-1.6,16.5,2.4,21.9,10.4c4.5,6.7,1.3,7.8-7.2,11.4
			C2161.6,978.8,2148.6,953,2162.1,950.6z"/>
		<radialGradient id="SVGID_3_" cx="2392.0774" cy="1312.8927" r="520.1738" gradientUnits="userSpaceOnUse">
			<stop  offset="0" style="stop-color:#989898;stop-opacity:0.3"/>
			<stop  offset="0.3879" style="stop-color:#989898;stop-opacity:0"/>
			<stop  offset="0.6585" style="stop-color:#989898;stop-opacity:0"/>
		</radialGradient>
		<path class="st4" d="M1908.7,521c-298.5,0-535.9,261.6-495.5,568c29.3,222.5,205.1,398.3,427.6,427.6
			c306.4,40.3,567.9-197.1,567.9-495.5C2408.7,744.9,2184.9,521,1908.7,521z M1762.3,621.3c12,26.7,38.9,28.2,33.2,34
			c-3,3.2-24.6-2.5-49-6c-21.3-3.1-33.6,0.2-39.8-5.5c-8.9-8.1-2.7-25,13.3-29c8.6-2.2,19.7-0.7,26.9,5c7.7,6-0.2-18-25.5-23.1
			c-2.8-0.6,1-1.4,3.2-2.3c10.9-4.4,23.5-8.9,35.7-12.1c0.9-0.2,2.7-0.4,2.3,0.4C1756.9,594.1,1757.3,610.3,1762.3,621.3z
			 M1660.5,630.1c4.6-2.8,10.5-0.2,11.6,5.1c2.5,12.4,5.7,16.1,12,20.5c15.9,11.1,39.9,15.2,50,18.7c7.5,2.5,4.8,3.3,1,4.4
			c-12.3,3.5-47.3,0.2-89,14.5c-32.9,11.3-58.6,43.7-76.7,77.5c-8.5,15.8-28.9,20.4-28.5,0.3c0.1-4.1-8-0.4-9.1,3.1
			c-10.9,34.9,24.5,36.7,15.5,45.7c-31.8,31.9-40.4,59.1-39.1,134.2c1.4,80.1-11.8,129.2-40.3,127.1c-3.4-0.2-5,4-2.3,6
			c27.4,20.8,52.6,14.3,70.5-9.9c2.8-3.8,5.9-3.2,6.9,1.5c2.6,12,6.7,27.7,23,56.9c22.7,40.6,34.2,44.7,36.4,52
			c2.6,8.3-4.2,5.6-4,22.1c0.1,22.1,11.5,57-1.9,68.7c-11.6,10-27.8,2.9-40.4-5c-2.5-1.5-3.1,3.7-1.6,6.2c3.3,5.6,16.3,26,46.2,27.3
			c45.5,1.9,21.8-81.7,55.6-68.3c14.4,5.7,18,16.5,20.8,34.8c4.8,31.9,17,39.8,1.2,52.9c-2.2,1.8-0.4,5.4,2.4,4.7
			c27.8-7.1,22.7-46.7,32.5-47.4c7.9-0.6,7.7,6.1,28.9,9.9c55.6,9.8,89.2,20,82.3,61.2c-5.4,32.1-45.5,39.4-115.7,34.6
			c-53.5-3.7-127-34.3-162.4-77C1369.9,1099.5,1425.2,776.1,1660.5,630.1z M2235.2,1342.6c40.5-92,37.6-152.8-41-233
			c-109.4-111.5-243.7-29.9-371.8-54.6c-91.7-17.6-103.4-108.7-76.4-133.7c4.8-4.5,7.4-12.7,1.9-15.9c-8.3-4.8-13-11.9-14.6-20.6
			c-3.4-18.2-2.4-30.2-0.2-34.9c2.9-6.1,6.4-3.1,6.9,1.3c1.1,9-1.7,71.3,56.9,73.4c50.9,1.8,74.7-29.4,100.2-34.6
			c22.7-4.6,39.4,5.8,79.8,26.4c36,18.3,78.3,83.4,101.5,83.3c20.3-0.1,38.8,4.4,51.3,6.2c32.1,4.6,40.5,4.3,57.7-16.3
			c4.9-5.9,9.1-1.7,10.9,5.7c3.2,13.2,6.2,38.6,14.3,67.5c13.5,48,45.9,105.3,86.8,102.6c18.9-1.3,34.5-10.1,42.8-33
			c1.2-3.2-2.6-5.4-5.3-3.3c-52.3,41.5-74.9-10.2-70.2-10.8c3.6-0.5,21.8,6.4,39.2,5.3c23.2-1.5,47.5-23.5,49.2-50.5
			c2.5-39.3-27.4-48.9-43.6-41.4c-0.8,0.4-0.6,1.6,0.3,1.6c36.6,0.5,35.3,70.4-12.3,71c-74.7,0.9-58.3-93.1-97.1-143
			c-11.1-14.2-22.7-17.9-21.9-22.2c0.5-3.1,10.8-2.2,14.2-2.1c17.2,0.9,22.7,14.5,21.1,23c-1.8,9.2,21.6-0.5,18.2-24.3
			c-1.4-10.1,5.8-6.5,6.3-12.2c0.5-5.7-3-8.9,1-15.6c5.5-9.2,8.4-11.3,7.9-17c-0.8-9.2-11.8-14.4-12.3-17.5c-0.6-3.7,8.7-2,16.6,0.4
			c5,1.5,8.1-3,5.3-7.3c-8.7-13.5-21.5-32.7-39.8-34.7c-17.7-2-13.1,10.7-36.2,5.9c-26.1-5.5-34.3-27.5-57.5-25.9
			c-6.3,0.4-24.3,5.1-46.7-22.7c-13.3-16.6-22-18.1-16.5-25.8c4.8-6.6,20.1-6.5,29.4-6c2.8,0.2,5.8-3.7,4.6-6.2
			c-39.7-79.3-76-50.5-86.7-56.8c-4.5-2.6-2.5-20.2-18.3-31.8c-11.3-8.3-39-3.6-66.9-4.7c-16.6-0.7-35.4,3.1-33.2-11.6
			c0.5-3.6,2.7-6.6,5.4-9c3.7-3.1,0.1-8.6-3.6-6.6c-22.6,12.2-20.5,29-33.2,27.1c-5.4-0.8-4-9.4-21.5-11.2
			c-44.6-4.5-64.4-42-34.3-62.6c22.5-15.4,49.1-8.1,52.2,10.8c0.5,3,4.7,3.2,5.4,0.3c5.6-22.8-15.7-36.4-10.5-37
			c271.6-34.9,523.5,179.4,523,461.3c-0.3,183-103.1,297.5-134.8,327.5C2235.3,1350.2,2233,1347.7,2235.2,1342.6z M2134.6,925.9
			c8.9,1.8,0.3,10,6.9,40.4c0.9,4.2-5.7,5.1-10,4.7c-75-7-138.9-85-197.1-107.3c-21.9-8.4-29.1-3.5-29.3-12.4
			c-0.2-9.5,33-32.3,61.1-29.9C2027,826.6,2070.5,913.1,2134.6,925.9z M2117.8,848.4c13.6-3.5,45.3,12.6,34.1,13.4
			c-8.5,0.7-19,2.4-27,7.2c-9.3,5.6-12.9,4.9-16.9-5.7C2105.4,856.7,2109.1,850.7,2117.8,848.4z M1993.5,769.5
			c-7.9,9.4-61.3-12.9-78.7-14.4c-12.8-1.1-19.5,6-24.3-0.1c-1.9-2.3,20.8-43.5,75.7-2.8c9,6.6,19.6,12.6,25.9,14.1
			C1995.9,767.2,1994.6,768.1,1993.5,769.5z M2162.1,950.6c9.2-1.6,16.5,2.4,21.9,10.4c4.5,6.7,1.3,7.8-7.2,11.4
			C2161.6,978.8,2148.6,953,2162.1,950.6z"/>
		<radialGradient id="SVGID_4_" cx="2476.1423" cy="1126.0819" r="436.0341" gradientUnits="userSpaceOnUse">
			<stop  offset="0" style="stop-color:#989898;stop-opacity:0.83"/>
			<stop  offset="0.3879" style="stop-color:#989898;stop-opacity:0"/>
			<stop  offset="0.6585" style="stop-color:#989898;stop-opacity:0"/>
		</radialGradient>
		<path class="st5" d="M1908.7,521c-298.5,0-535.9,261.6-495.5,568c29.3,222.5,205.1,398.3,427.6,427.6
			c306.4,40.3,567.9-197.1,567.9-495.5C2408.7,744.9,2184.9,521,1908.7,521z M1762.3,621.3c12,26.7,38.9,28.2,33.2,34
			c-3,3.2-24.6-2.5-49-6c-21.3-3.1-33.6,0.2-39.8-5.5c-8.9-8.1-2.7-25,13.3-29c8.6-2.2,19.7-0.7,26.9,5c7.7,6-0.2-18-25.5-23.1
			c-2.8-0.6,1-1.4,3.2-2.3c10.9-4.4,23.5-8.9,35.7-12.1c0.9-0.2,2.7-0.4,2.3,0.4C1756.9,594.1,1757.3,610.3,1762.3,621.3z
			 M1660.5,630.1c4.6-2.8,10.5-0.2,11.6,5.1c2.5,12.4,5.7,16.1,12,20.5c15.9,11.1,39.9,15.2,50,18.7c7.5,2.5,4.8,3.3,1,4.4
			c-12.3,3.5-47.3,0.2-89,14.5c-32.9,11.3-58.6,43.7-76.7,77.5c-8.5,15.8-28.9,20.4-28.5,0.3c0.1-4.1-8-0.4-9.1,3.1
			c-10.9,34.9,24.5,36.7,15.5,45.7c-31.8,31.9-40.4,59.1-39.1,134.2c1.4,80.1-11.8,129.2-40.3,127.1c-3.4-0.2-5,4-2.3,6
			c27.4,20.8,52.6,14.3,70.5-9.9c2.8-3.8,5.9-3.2,6.9,1.5c2.6,12,6.7,27.7,23,56.9c22.7,40.6,34.2,44.7,36.4,52
			c2.6,8.3-4.2,5.6-4,22.1c0.1,22.1,11.5,57-1.9,68.7c-11.6,10-27.8,2.9-40.4-5c-2.5-1.5-3.1,3.7-1.6,6.2c3.3,5.6,16.3,26,46.2,27.3
			c45.5,1.9,21.8-81.7,55.6-68.3c14.4,5.7,18,16.5,20.8,34.8c4.8,31.9,17,39.8,1.2,52.9c-2.2,1.8-0.4,5.4,2.4,4.7
			c27.8-7.1,22.7-46.7,32.5-47.4c7.9-0.6,7.7,6.1,28.9,9.9c55.6,9.8,89.2,20,82.3,61.2c-5.4,32.1-45.5,39.4-115.7,34.6
			c-53.5-3.7-127-34.3-162.4-77C1369.9,1099.5,1425.2,776.1,1660.5,630.1z M2235.2,1342.6c40.5-92,37.6-152.8-41-233
			c-109.4-111.5-243.7-29.9-371.8-54.6c-91.7-17.6-103.4-108.7-76.4-133.7c4.8-4.5,7.4-12.7,1.9-15.9c-8.3-4.8-13-11.9-14.6-20.6
			c-3.4-18.2-2.4-30.2-0.2-34.9c2.9-6.1,6.4-3.1,6.9,1.3c1.1,9-1.7,71.3,56.9,73.4c50.9,1.8,74.7-29.4,100.2-34.6
			c22.7-4.6,39.4,5.8,79.8,26.4c36,18.3,78.3,83.4,101.5,83.3c20.3-0.1,38.8,4.4,51.3,6.2c32.1,4.6,40.5,4.3,57.7-16.3
			c4.9-5.9,9.1-1.7,10.9,5.7c3.2,13.2,6.2,38.6,14.3,67.5c13.5,48,45.9,105.3,86.8,102.6c18.9-1.3,34.5-10.1,42.8-33
			c1.2-3.2-2.6-5.4-5.3-3.3c-52.3,41.5-74.9-10.2-70.2-10.8c3.6-0.5,21.8,6.4,39.2,5.3c23.2-1.5,47.5-23.5,49.2-50.5
			c2.5-39.3-27.4-48.9-43.6-41.4c-0.8,0.4-0.6,1.6,0.3,1.6c36.6,0.5,35.3,70.4-12.3,71c-74.7,0.9-58.3-93.1-97.1-143
			c-11.1-14.2-22.7-17.9-21.9-22.2c0.5-3.1,10.8-2.2,14.2-2.1c17.2,0.9,22.7,14.5,21.1,23c-1.8,9.2,21.6-0.5,18.2-24.3
			c-1.4-10.1,5.8-6.5,6.3-12.2c0.5-5.7-3-8.9,1-15.6c5.5-9.2,8.4-11.3,7.9-17c-0.8-9.2-11.8-14.4-12.3-17.5c-0.6-3.7,8.7-2,16.6,0.4
			c5,1.5,8.1-3,5.3-7.3c-8.7-13.5-21.5-32.7-39.8-34.7c-17.7-2-13.1,10.7-36.2,5.9c-26.1-5.5-34.3-27.5-57.5-25.9
			c-6.3,0.4-24.3,5.1-46.7-22.7c-13.3-16.6-22-18.1-16.5-25.8c4.8-6.6,20.1-6.5,29.4-6c2.8,0.2,5.8-3.7,4.6-6.2
			c-39.7-79.3-76-50.5-86.7-56.8c-4.5-2.6-2.5-20.2-18.3-31.8c-11.3-8.3-39-3.6-66.9-4.7c-16.6-0.7-35.4,3.1-33.2-11.6
			c0.5-3.6,2.7-6.6,5.4-9c3.7-3.1,0.1-8.6-3.6-6.6c-22.6,12.2-20.5,29-33.2,27.1c-5.4-0.8-4-9.4-21.5-11.2
			c-44.6-4.5-64.4-42-34.3-62.6c22.5-15.4,49.1-8.1,52.2,10.8c0.5,3,4.7,3.2,5.4,0.3c5.6-22.8-15.7-36.4-10.5-37
			c271.6-34.9,523.5,179.4,523,461.3c-0.3,183-103.1,297.5-134.8,327.5C2235.3,1350.2,2233,1347.7,2235.2,1342.6z M2134.6,925.9
			c8.9,1.8,0.3,10,6.9,40.4c0.9,4.2-5.7,5.1-10,4.7c-75-7-138.9-85-197.1-107.3c-21.9-8.4-29.1-3.5-29.3-12.4
			c-0.2-9.5,33-32.3,61.1-29.9C2027,826.6,2070.5,913.1,2134.6,925.9z M2117.8,848.4c13.6-3.5,45.3,12.6,34.1,13.4
			c-8.5,0.7-19,2.4-27,7.2c-9.3,5.6-12.9,4.9-16.9-5.7C2105.4,856.7,2109.1,850.7,2117.8,848.4z M1993.5,769.5
			c-7.9,9.4-61.3-12.9-78.7-14.4c-12.8-1.1-19.5,6-24.3-0.1c-1.9-2.3,20.8-43.5,75.7-2.8c9,6.6,19.6,12.6,25.9,14.1
			C1995.9,767.2,1994.6,768.1,1993.5,769.5z M2162.1,950.6c9.2-1.6,16.5,2.4,21.9,10.4c4.5,6.7,1.3,7.8-7.2,11.4
			C2161.6,978.8,2148.6,953,2162.1,950.6z"/>
		<radialGradient id="SVGID_5_" cx="2480.8127" cy="960.2873" r="436.0341" gradientUnits="userSpaceOnUse">
			<stop  offset="0" style="stop-color:#989898;stop-opacity:0.6"/>
			<stop  offset="0.3879" style="stop-color:#989898;stop-opacity:0"/>
			<stop  offset="0.6585" style="stop-color:#989898;stop-opacity:0"/>
		</radialGradient>
		<path class="st6" d="M1908.7,521c-298.5,0-535.9,261.6-495.5,568c29.3,222.5,205.1,398.3,427.6,427.6
			c306.4,40.3,567.9-197.1,567.9-495.5C2408.7,744.9,2184.9,521,1908.7,521z M1762.3,621.3c12,26.7,38.9,28.2,33.2,34
			c-3,3.2-24.6-2.5-49-6c-21.3-3.1-33.6,0.2-39.8-5.5c-8.9-8.1-2.7-25,13.3-29c8.6-2.2,19.7-0.7,26.9,5c7.7,6-0.2-18-25.5-23.1
			c-2.8-0.6,1-1.4,3.2-2.3c10.9-4.4,23.5-8.9,35.7-12.1c0.9-0.2,2.7-0.4,2.3,0.4C1756.9,594.1,1757.3,610.3,1762.3,621.3z
			 M1660.5,630.1c4.6-2.8,10.5-0.2,11.6,5.1c2.5,12.4,5.7,16.1,12,20.5c15.9,11.1,39.9,15.2,50,18.7c7.5,2.5,4.8,3.3,1,4.4
			c-12.3,3.5-47.3,0.2-89,14.5c-32.9,11.3-58.6,43.7-76.7,77.5c-8.5,15.8-28.9,20.4-28.5,0.3c0.1-4.1-8-0.4-9.1,3.1
			c-10.9,34.9,24.5,36.7,15.5,45.7c-31.8,31.9-40.4,59.1-39.1,134.2c1.4,80.1-11.8,129.2-40.3,127.1c-3.4-0.2-5,4-2.3,6
			c27.4,20.8,52.6,14.3,70.5-9.9c2.8-3.8,5.9-3.2,6.9,1.5c2.6,12,6.7,27.7,23,56.9c22.7,40.6,34.2,44.7,36.4,52
			c2.6,8.3-4.2,5.6-4,22.1c0.1,22.1,11.5,57-1.9,68.7c-11.6,10-27.8,2.9-40.4-5c-2.5-1.5-3.1,3.7-1.6,6.2c3.3,5.6,16.3,26,46.2,27.3
			c45.5,1.9,21.8-81.7,55.6-68.3c14.4,5.7,18,16.5,20.8,34.8c4.8,31.9,17,39.8,1.2,52.9c-2.2,1.8-0.4,5.4,2.4,4.7
			c27.8-7.1,22.7-46.7,32.5-47.4c7.9-0.6,7.7,6.1,28.9,9.9c55.6,9.8,89.2,20,82.3,61.2c-5.4,32.1-45.5,39.4-115.7,34.6
			c-53.5-3.7-127-34.3-162.4-77C1369.9,1099.5,1425.2,776.1,1660.5,630.1z M2235.2,1342.6c40.5-92,37.6-152.8-41-233
			c-109.4-111.5-243.7-29.9-371.8-54.6c-91.7-17.6-103.4-108.7-76.4-133.7c4.8-4.5,7.4-12.7,1.9-15.9c-8.3-4.8-13-11.9-14.6-20.6
			c-3.4-18.2-2.4-30.2-0.2-34.9c2.9-6.1,6.4-3.1,6.9,1.3c1.1,9-1.7,71.3,56.9,73.4c50.9,1.8,74.7-29.4,100.2-34.6
			c22.7-4.6,39.4,5.8,79.8,26.4c36,18.3,78.3,83.4,101.5,83.3c20.3-0.1,38.8,4.4,51.3,6.2c32.1,4.6,40.5,4.3,57.7-16.3
			c4.9-5.9,9.1-1.7,10.9,5.7c3.2,13.2,6.2,38.6,14.3,67.5c13.5,48,45.9,105.3,86.8,102.6c18.9-1.3,34.5-10.1,42.8-33
			c1.2-3.2-2.6-5.4-5.3-3.3c-52.3,41.5-74.9-10.2-70.2-10.8c3.6-0.5,21.8,6.4,39.2,5.3c23.2-1.5,47.5-23.5,49.2-50.5
			c2.5-39.3-27.4-48.9-43.6-41.4c-0.8,0.4-0.6,1.6,0.3,1.6c36.6,0.5,35.3,70.4-12.3,71c-74.7,0.9-58.3-93.1-97.1-143
			c-11.1-14.2-22.7-17.9-21.9-22.2c0.5-3.1,10.8-2.2,14.2-2.1c17.2,0.9,22.7,14.5,21.1,23c-1.8,9.2,21.6-0.5,18.2-24.3
			c-1.4-10.1,5.8-6.5,6.3-12.2c0.5-5.7-3-8.9,1-15.6c5.5-9.2,8.4-11.3,7.9-17c-0.8-9.2-11.8-14.4-12.3-17.5c-0.6-3.7,8.7-2,16.6,0.4
			c5,1.5,8.1-3,5.3-7.3c-8.7-13.5-21.5-32.7-39.8-34.7c-17.7-2-13.1,10.7-36.2,5.9c-26.1-5.5-34.3-27.5-57.5-25.9
			c-6.3,0.4-24.3,5.1-46.7-22.7c-13.3-16.6-22-18.1-16.5-25.8c4.8-6.6,20.1-6.5,29.4-6c2.8,0.2,5.8-3.7,4.6-6.2
			c-39.7-79.3-76-50.5-86.7-56.8c-4.5-2.6-2.5-20.2-18.3-31.8c-11.3-8.3-39-3.6-66.9-4.7c-16.6-0.7-35.4,3.1-33.2-11.6
			c0.5-3.6,2.7-6.6,5.4-9c3.7-3.1,0.1-8.6-3.6-6.6c-22.6,12.2-20.5,29-33.2,27.1c-5.4-0.8-4-9.4-21.5-11.2
			c-44.6-4.5-64.4-42-34.3-62.6c22.5-15.4,49.1-8.1,52.2,10.8c0.5,3,4.7,3.2,5.4,0.3c5.6-22.8-15.7-36.4-10.5-37
			c271.6-34.9,523.5,179.4,523,461.3c-0.3,183-103.1,297.5-134.8,327.5C2235.3,1350.2,2233,1347.7,2235.2,1342.6z M2134.6,925.9
			c8.9,1.8,0.3,10,6.9,40.4c0.9,4.2-5.7,5.1-10,4.7c-75-7-138.9-85-197.1-107.3c-21.9-8.4-29.1-3.5-29.3-12.4
			c-0.2-9.5,33-32.3,61.1-29.9C2027,826.6,2070.5,913.1,2134.6,925.9z M2117.8,848.4c13.6-3.5,45.3,12.6,34.1,13.4
			c-8.5,0.7-19,2.4-27,7.2c-9.3,5.6-12.9,4.9-16.9-5.7C2105.4,856.7,2109.1,850.7,2117.8,848.4z M1993.5,769.5
			c-7.9,9.4-61.3-12.9-78.7-14.4c-12.8-1.1-19.5,6-24.3-0.1c-1.9-2.3,20.8-43.5,75.7-2.8c9,6.6,19.6,12.6,25.9,14.1
			C1995.9,767.2,1994.6,768.1,1993.5,769.5z M2162.1,950.6c9.2-1.6,16.5,2.4,21.9,10.4c4.5,6.7,1.3,7.8-7.2,11.4
			C2161.6,978.8,2148.6,953,2162.1,950.6z"/>
		<radialGradient id="SVGID_6_" cx="1794.0234" cy="1363.7467" r="118.3679" gradientUnits="userSpaceOnUse">
			<stop  offset="0" style="stop-color:#989898;stop-opacity:0.83"/>
			<stop  offset="0.3376" style="stop-color:#989898;stop-opacity:0.3"/>
			<stop  offset="0.5919" style="stop-color:#989898;stop-opacity:0.1"/>
		</radialGradient>
		<path class="st7" d="M1908.7,521c-298.5,0-535.9,261.6-495.5,568c29.3,222.5,205.1,398.3,427.6,427.6
			c306.4,40.3,567.9-197.1,567.9-495.5C2408.7,744.9,2184.9,521,1908.7,521z M1762.3,621.3c12,26.7,38.9,28.2,33.2,34
			c-3,3.2-24.6-2.5-49-6c-21.3-3.1-33.6,0.2-39.8-5.5c-8.9-8.1-2.7-25,13.3-29c8.6-2.2,19.7-0.7,26.9,5c7.7,6-0.2-18-25.5-23.1
			c-2.8-0.6,1-1.4,3.2-2.3c10.9-4.4,23.5-8.9,35.7-12.1c0.9-0.2,2.7-0.4,2.3,0.4C1756.9,594.1,1757.3,610.3,1762.3,621.3z
			 M1660.5,630.1c4.6-2.8,10.5-0.2,11.6,5.1c2.5,12.4,5.7,16.1,12,20.5c15.9,11.1,39.9,15.2,50,18.7c7.5,2.5,4.8,3.3,1,4.4
			c-12.3,3.5-47.3,0.2-89,14.5c-32.9,11.3-58.6,43.7-76.7,77.5c-8.5,15.8-28.9,20.4-28.5,0.3c0.1-4.1-8-0.4-9.1,3.1
			c-10.9,34.9,24.5,36.7,15.5,45.7c-31.8,31.9-40.4,59.1-39.1,134.2c1.4,80.1-11.8,129.2-40.3,127.1c-3.4-0.2-5,4-2.3,6
			c27.4,20.8,52.6,14.3,70.5-9.9c2.8-3.8,5.9-3.2,6.9,1.5c2.6,12,6.7,27.7,23,56.9c22.7,40.6,34.2,44.7,36.4,52
			c2.6,8.3-4.2,5.6-4,22.1c0.1,22.1,11.5,57-1.9,68.7c-11.6,10-27.8,2.9-40.4-5c-2.5-1.5-3.1,3.7-1.6,6.2c3.3,5.6,16.3,26,46.2,27.3
			c45.5,1.9,21.8-81.7,55.6-68.3c14.4,5.7,18,16.5,20.8,34.8c4.8,31.9,17,39.8,1.2,52.9c-2.2,1.8-0.4,5.4,2.4,4.7
			c27.8-7.1,22.7-46.7,32.5-47.4c7.9-0.6,7.7,6.1,28.9,9.9c55.6,9.8,89.2,20,82.3,61.2c-5.4,32.1-45.5,39.4-115.7,34.6
			c-53.5-3.7-127-34.3-162.4-77C1369.9,1099.5,1425.2,776.1,1660.5,630.1z M2235.2,1342.6c40.5-92,37.6-152.8-41-233
			c-109.4-111.5-243.7-29.9-371.8-54.6c-91.7-17.6-103.4-108.7-76.4-133.7c4.8-4.5,7.4-12.7,1.9-15.9c-8.3-4.8-13-11.9-14.6-20.6
			c-3.4-18.2-2.4-30.2-0.2-34.9c2.9-6.1,6.4-3.1,6.9,1.3c1.1,9-1.7,71.3,56.9,73.4c50.9,1.8,74.7-29.4,100.2-34.6
			c22.7-4.6,39.4,5.8,79.8,26.4c36,18.3,78.3,83.4,101.5,83.3c20.3-0.1,38.8,4.4,51.3,6.2c32.1,4.6,40.5,4.3,57.7-16.3
			c4.9-5.9,9.1-1.7,10.9,5.7c3.2,13.2,6.2,38.6,14.3,67.5c13.5,48,45.9,105.3,86.8,102.6c18.9-1.3,34.5-10.1,42.8-33
			c1.2-3.2-2.6-5.4-5.3-3.3c-52.3,41.5-74.9-10.2-70.2-10.8c3.6-0.5,21.8,6.4,39.2,5.3c23.2-1.5,47.5-23.5,49.2-50.5
			c2.5-39.3-27.4-48.9-43.6-41.4c-0.8,0.4-0.6,1.6,0.3,1.6c36.6,0.5,35.3,70.4-12.3,71c-74.7,0.9-58.3-93.1-97.1-143
			c-11.1-14.2-22.7-17.9-21.9-22.2c0.5-3.1,10.8-2.2,14.2-2.1c17.2,0.9,22.7,14.5,21.1,23c-1.8,9.2,21.6-0.5,18.2-24.3
			c-1.4-10.1,5.8-6.5,6.3-12.2c0.5-5.7-3-8.9,1-15.6c5.5-9.2,8.4-11.3,7.9-17c-0.8-9.2-11.8-14.4-12.3-17.5c-0.6-3.7,8.7-2,16.6,0.4
			c5,1.5,8.1-3,5.3-7.3c-8.7-13.5-21.5-32.7-39.8-34.7c-17.7-2-13.1,10.7-36.2,5.9c-26.1-5.5-34.3-27.5-57.5-25.9
			c-6.3,0.4-24.3,5.1-46.7-22.7c-13.3-16.6-22-18.1-16.5-25.8c4.8-6.6,20.1-6.5,29.4-6c2.8,0.2,5.8-3.7,4.6-6.2
			c-39.7-79.3-76-50.5-86.7-56.8c-4.5-2.6-2.5-20.2-18.3-31.8c-11.3-8.3-39-3.6-66.9-4.7c-16.6-0.7-35.4,3.1-33.2-11.6
			c0.5-3.6,2.7-6.6,5.4-9c3.7-3.1,0.1-8.6-3.6-6.6c-22.6,12.2-20.5,29-33.2,27.1c-5.4-0.8-4-9.4-21.5-11.2
			c-44.6-4.5-64.4-42-34.3-62.6c22.5-15.4,49.1-8.1,52.2,10.8c0.5,3,4.7,3.2,5.4,0.3c5.6-22.8-15.7-36.4-10.5-37
			c271.6-34.9,523.5,179.4,523,461.3c-0.3,183-103.1,297.5-134.8,327.5C2235.3,1350.2,2233,1347.7,2235.2,1342.6z M2134.6,925.9
			c8.9,1.8,0.3,10,6.9,40.4c0.9,4.2-5.7,5.1-10,4.7c-75-7-138.9-85-197.1-107.3c-21.9-8.4-29.1-3.5-29.3-12.4
			c-0.2-9.5,33-32.3,61.1-29.9C2027,826.6,2070.5,913.1,2134.6,925.9z M2117.8,848.4c13.6-3.5,45.3,12.6,34.1,13.4
			c-8.5,0.7-19,2.4-27,7.2c-9.3,5.6-12.9,4.9-16.9-5.7C2105.4,856.7,2109.1,850.7,2117.8,848.4z M1993.5,769.5
			c-7.9,9.4-61.3-12.9-78.7-14.4c-12.8-1.1-19.5,6-24.3-0.1c-1.9-2.3,20.8-43.5,75.7-2.8c9,6.6,19.6,12.6,25.9,14.1
			C1995.9,767.2,1994.6,768.1,1993.5,769.5z M2162.1,950.6c9.2-1.6,16.5,2.4,21.9,10.4c4.5,6.7,1.3,7.8-7.2,11.4
			C2161.6,978.8,2148.6,953,2162.1,950.6z"/>
		<radialGradient id="SVGID_7_" cx="1564.4019" cy="1363.7467" r="118.3679" gradientUnits="userSpaceOnUse">
			<stop  offset="0.1333" style="stop-color:#989898;stop-opacity:0.4"/>
			<stop  offset="0.6051" style="stop-color:#989898;stop-opacity:0.1"/>
		</radialGradient>
		<path class="st8" d="M1908.7,521c-298.5,0-535.9,261.6-495.5,568c29.3,222.5,205.1,398.3,427.6,427.6
			c306.4,40.3,567.9-197.1,567.9-495.5C2408.7,744.9,2184.9,521,1908.7,521z M1762.3,621.3c12,26.7,38.9,28.2,33.2,34
			c-3,3.2-24.6-2.5-49-6c-21.3-3.1-33.6,0.2-39.8-5.5c-8.9-8.1-2.7-25,13.3-29c8.6-2.2,19.7-0.7,26.9,5c7.7,6-0.2-18-25.5-23.1
			c-2.8-0.6,1-1.4,3.2-2.3c10.9-4.4,23.5-8.9,35.7-12.1c0.9-0.2,2.7-0.4,2.3,0.4C1756.9,594.1,1757.3,610.3,1762.3,621.3z
			 M1660.5,630.1c4.6-2.8,10.5-0.2,11.6,5.1c2.5,12.4,5.7,16.1,12,20.5c15.9,11.1,39.9,15.2,50,18.7c7.5,2.5,4.8,3.3,1,4.4
			c-12.3,3.5-47.3,0.2-89,14.5c-32.9,11.3-58.6,43.7-76.7,77.5c-8.5,15.8-28.9,20.4-28.5,0.3c0.1-4.1-8-0.4-9.1,3.1
			c-10.9,34.9,24.5,36.7,15.5,45.7c-31.8,31.9-40.4,59.1-39.1,134.2c1.4,80.1-11.8,129.2-40.3,127.1c-3.4-0.2-5,4-2.3,6
			c27.4,20.8,52.6,14.3,70.5-9.9c2.8-3.8,5.9-3.2,6.9,1.5c2.6,12,6.7,27.7,23,56.9c22.7,40.6,34.2,44.7,36.4,52
			c2.6,8.3-4.2,5.6-4,22.1c0.1,22.1,11.5,57-1.9,68.7c-11.6,10-27.8,2.9-40.4-5c-2.5-1.5-3.1,3.7-1.6,6.2c3.3,5.6,16.3,26,46.2,27.3
			c45.5,1.9,21.8-81.7,55.6-68.3c14.4,5.7,18,16.5,20.8,34.8c4.8,31.9,17,39.8,1.2,52.9c-2.2,1.8-0.4,5.4,2.4,4.7
			c27.8-7.1,22.7-46.7,32.5-47.4c7.9-0.6,7.7,6.1,28.9,9.9c55.6,9.8,89.2,20,82.3,61.2c-5.4,32.1-45.5,39.4-115.7,34.6
			c-53.5-3.7-127-34.3-162.4-77C1369.9,1099.5,1425.2,776.1,1660.5,630.1z M2235.2,1342.6c40.5-92,37.6-152.8-41-233
			c-109.4-111.5-243.7-29.9-371.8-54.6c-91.7-17.6-103.4-108.7-76.4-133.7c4.8-4.5,7.4-12.7,1.9-15.9c-8.3-4.8-13-11.9-14.6-20.6
			c-3.4-18.2-2.4-30.2-0.2-34.9c2.9-6.1,6.4-3.1,6.9,1.3c1.1,9-1.7,71.3,56.9,73.4c50.9,1.8,74.7-29.4,100.2-34.6
			c22.7-4.6,39.4,5.8,79.8,26.4c36,18.3,78.3,83.4,101.5,83.3c20.3-0.1,38.8,4.4,51.3,6.2c32.1,4.6,40.5,4.3,57.7-16.3
			c4.9-5.9,9.1-1.7,10.9,5.7c3.2,13.2,6.2,38.6,14.3,67.5c13.5,48,45.9,105.3,86.8,102.6c18.9-1.3,34.5-10.1,42.8-33
			c1.2-3.2-2.6-5.4-5.3-3.3c-52.3,41.5-74.9-10.2-70.2-10.8c3.6-0.5,21.8,6.4,39.2,5.3c23.2-1.5,47.5-23.5,49.2-50.5
			c2.5-39.3-27.4-48.9-43.6-41.4c-0.8,0.4-0.6,1.6,0.3,1.6c36.6,0.5,35.3,70.4-12.3,71c-74.7,0.9-58.3-93.1-97.1-143
			c-11.1-14.2-22.7-17.9-21.9-22.2c0.5-3.1,10.8-2.2,14.2-2.1c17.2,0.9,22.7,14.5,21.1,23c-1.8,9.2,21.6-0.5,18.2-24.3
			c-1.4-10.1,5.8-6.5,6.3-12.2c0.5-5.7-3-8.9,1-15.6c5.5-9.2,8.4-11.3,7.9-17c-0.8-9.2-11.8-14.4-12.3-17.5c-0.6-3.7,8.7-2,16.6,0.4
			c5,1.5,8.1-3,5.3-7.3c-8.7-13.5-21.5-32.7-39.8-34.7c-17.7-2-13.1,10.7-36.2,5.9c-26.1-5.5-34.3-27.5-57.5-25.9
			c-6.3,0.4-24.3,5.1-46.7-22.7c-13.3-16.6-22-18.1-16.5-25.8c4.8-6.6,20.1-6.5,29.4-6c2.8,0.2,5.8-3.7,4.6-6.2
			c-39.7-79.3-76-50.5-86.7-56.8c-4.5-2.6-2.5-20.2-18.3-31.8c-11.3-8.3-39-3.6-66.9-4.7c-16.6-0.7-35.4,3.1-33.2-11.6
			c0.5-3.6,2.7-6.6,5.4-9c3.7-3.1,0.1-8.6-3.6-6.6c-22.6,12.2-20.5,29-33.2,27.1c-5.4-0.8-4-9.4-21.5-11.2
			c-44.6-4.5-64.4-42-34.3-62.6c22.5-15.4,49.1-8.1,52.2,10.8c0.5,3,4.7,3.2,5.4,0.3c5.6-22.8-15.7-36.4-10.5-37
			c271.6-34.9,523.5,179.4,523,461.3c-0.3,183-103.1,297.5-134.8,327.5C2235.3,1350.2,2233,1347.7,2235.2,1342.6z M2134.6,925.9
			c8.9,1.8,0.3,10,6.9,40.4c0.9,4.2-5.7,5.1-10,4.7c-75-7-138.9-85-197.1-107.3c-21.9-8.4-29.1-3.5-29.3-12.4
			c-0.2-9.5,33-32.3,61.1-29.9C2027,826.6,2070.5,913.1,2134.6,925.9z M2117.8,848.4c13.6-3.5,45.3,12.6,34.1,13.4
			c-8.5,0.7-19,2.4-27,7.2c-9.3,5.6-12.9,4.9-16.9-5.7C2105.4,856.7,2109.1,850.7,2117.8,848.4z M1993.5,769.5
			c-7.9,9.4-61.3-12.9-78.7-14.4c-12.8-1.1-19.5,6-24.3-0.1c-1.9-2.3,20.8-43.5,75.7-2.8c9,6.6,19.6,12.6,25.9,14.1
			C1995.9,767.2,1994.6,768.1,1993.5,769.5z M2162.1,950.6c9.2-1.6,16.5,2.4,21.9,10.4c4.5,6.7,1.3,7.8-7.2,11.4
			C2161.6,978.8,2148.6,953,2162.1,950.6z"/>
		<radialGradient id="SVGID_8_" cx="1507.5802" cy="1062.5143" r="93.4929" gradientUnits="userSpaceOnUse">
			<stop  offset="0" style="stop-color:#989898;stop-opacity:0.83"/>
			<stop  offset="0.3879" style="stop-color:#989898;stop-opacity:0"/>
			<stop  offset="0.6585" style="stop-color:#989898;stop-opacity:0"/>
		</radialGradient>
		<path class="st9" d="M1908.7,521c-298.5,0-535.9,261.6-495.5,568c29.3,222.5,205.1,398.3,427.6,427.6
			c306.4,40.3,567.9-197.1,567.9-495.5C2408.7,744.9,2184.9,521,1908.7,521z M1762.3,621.3c12,26.7,38.9,28.2,33.2,34
			c-3,3.2-24.6-2.5-49-6c-21.3-3.1-33.6,0.2-39.8-5.5c-8.9-8.1-2.7-25,13.3-29c8.6-2.2,19.7-0.7,26.9,5c7.7,6-0.2-18-25.5-23.1
			c-2.8-0.6,1-1.4,3.2-2.3c10.9-4.4,23.5-8.9,35.7-12.1c0.9-0.2,2.7-0.4,2.3,0.4C1756.9,594.1,1757.3,610.3,1762.3,621.3z
			 M1660.5,630.1c4.6-2.8,10.5-0.2,11.6,5.1c2.5,12.4,5.7,16.1,12,20.5c15.9,11.1,39.9,15.2,50,18.7c7.5,2.5,4.8,3.3,1,4.4
			c-12.3,3.5-47.3,0.2-89,14.5c-32.9,11.3-58.6,43.7-76.7,77.5c-8.5,15.8-28.9,20.4-28.5,0.3c0.1-4.1-8-0.4-9.1,3.1
			c-10.9,34.9,24.5,36.7,15.5,45.7c-31.8,31.9-40.4,59.1-39.1,134.2c1.4,80.1-11.8,129.2-40.3,127.1c-3.4-0.2-5,4-2.3,6
			c27.4,20.8,52.6,14.3,70.5-9.9c2.8-3.8,5.9-3.2,6.9,1.5c2.6,12,6.7,27.7,23,56.9c22.7,40.6,34.2,44.7,36.4,52
			c2.6,8.3-4.2,5.6-4,22.1c0.1,22.1,11.5,57-1.9,68.7c-11.6,10-27.8,2.9-40.4-5c-2.5-1.5-3.1,3.7-1.6,6.2c3.3,5.6,16.3,26,46.2,27.3
			c45.5,1.9,21.8-81.7,55.6-68.3c14.4,5.7,18,16.5,20.8,34.8c4.8,31.9,17,39.8,1.2,52.9c-2.2,1.8-0.4,5.4,2.4,4.7
			c27.8-7.1,22.7-46.7,32.5-47.4c7.9-0.6,7.7,6.1,28.9,9.9c55.6,9.8,89.2,20,82.3,61.2c-5.4,32.1-45.5,39.4-115.7,34.6
			c-53.5-3.7-127-34.3-162.4-77C1369.9,1099.5,1425.2,776.1,1660.5,630.1z M2235.2,1342.6c40.5-92,37.6-152.8-41-233
			c-109.4-111.5-243.7-29.9-371.8-54.6c-91.7-17.6-103.4-108.7-76.4-133.7c4.8-4.5,7.4-12.7,1.9-15.9c-8.3-4.8-13-11.9-14.6-20.6
			c-3.4-18.2-2.4-30.2-0.2-34.9c2.9-6.1,6.4-3.1,6.9,1.3c1.1,9-1.7,71.3,56.9,73.4c50.9,1.8,74.7-29.4,100.2-34.6
			c22.7-4.6,39.4,5.8,79.8,26.4c36,18.3,78.3,83.4,101.5,83.3c20.3-0.1,38.8,4.4,51.3,6.2c32.1,4.6,40.5,4.3,57.7-16.3
			c4.9-5.9,9.1-1.7,10.9,5.7c3.2,13.2,6.2,38.6,14.3,67.5c13.5,48,45.9,105.3,86.8,102.6c18.9-1.3,34.5-10.1,42.8-33
			c1.2-3.2-2.6-5.4-5.3-3.3c-52.3,41.5-74.9-10.2-70.2-10.8c3.6-0.5,21.8,6.4,39.2,5.3c23.2-1.5,47.5-23.5,49.2-50.5
			c2.5-39.3-27.4-48.9-43.6-41.4c-0.8,0.4-0.6,1.6,0.3,1.6c36.6,0.5,35.3,70.4-12.3,71c-74.7,0.9-58.3-93.1-97.1-143
			c-11.1-14.2-22.7-17.9-21.9-22.2c0.5-3.1,10.8-2.2,14.2-2.1c17.2,0.9,22.7,14.5,21.1,23c-1.8,9.2,21.6-0.5,18.2-24.3
			c-1.4-10.1,5.8-6.5,6.3-12.2c0.5-5.7-3-8.9,1-15.6c5.5-9.2,8.4-11.3,7.9-17c-0.8-9.2-11.8-14.4-12.3-17.5c-0.6-3.7,8.7-2,16.6,0.4
			c5,1.5,8.1-3,5.3-7.3c-8.7-13.5-21.5-32.7-39.8-34.7c-17.7-2-13.1,10.7-36.2,5.9c-26.1-5.5-34.3-27.5-57.5-25.9
			c-6.3,0.4-24.3,5.1-46.7-22.7c-13.3-16.6-22-18.1-16.5-25.8c4.8-6.6,20.1-6.5,29.4-6c2.8,0.2,5.8-3.7,4.6-6.2
			c-39.7-79.3-76-50.5-86.7-56.8c-4.5-2.6-2.5-20.2-18.3-31.8c-11.3-8.3-39-3.6-66.9-4.7c-16.6-0.7-35.4,3.1-33.2-11.6
			c0.5-3.6,2.7-6.6,5.4-9c3.7-3.1,0.1-8.6-3.6-6.6c-22.6,12.2-20.5,29-33.2,27.1c-5.4-0.8-4-9.4-21.5-11.2
			c-44.6-4.5-64.4-42-34.3-62.6c22.5-15.4,49.1-8.1,52.2,10.8c0.5,3,4.7,3.2,5.4,0.3c5.6-22.8-15.7-36.4-10.5-37
			c271.6-34.9,523.5,179.4,523,461.3c-0.3,183-103.1,297.5-134.8,327.5C2235.3,1350.2,2233,1347.7,2235.2,1342.6z M2134.6,925.9
			c8.9,1.8,0.3,10,6.9,40.4c0.9,4.2-5.7,5.1-10,4.7c-75-7-138.9-85-197.1-107.3c-21.9-8.4-29.1-3.5-29.3-12.4
			c-0.2-9.5,33-32.3,61.1-29.9C2027,826.6,2070.5,913.1,2134.6,925.9z M2117.8,848.4c13.6-3.5,45.3,12.6,34.1,13.4
			c-8.5,0.7-19,2.4-27,7.2c-9.3,5.6-12.9,4.9-16.9-5.7C2105.4,856.7,2109.1,850.7,2117.8,848.4z M1993.5,769.5
			c-7.9,9.4-61.3-12.9-78.7-14.4c-12.8-1.1-19.5,6-24.3-0.1c-1.9-2.3,20.8-43.5,75.7-2.8c9,6.6,19.6,12.6,25.9,14.1
			C1995.9,767.2,1994.6,768.1,1993.5,769.5z M2162.1,950.6c9.2-1.6,16.5,2.4,21.9,10.4c4.5,6.7,1.3,7.8-7.2,11.4
			C2161.6,978.8,2148.6,953,2162.1,950.6z"/>
		<radialGradient id="SVGID_9_" cx="1590.6072" cy="1259.7035" r="85.6782" gradientUnits="userSpaceOnUse">
			<stop  offset="0" style="stop-color:#989898;stop-opacity:0.83"/>
			<stop  offset="0.4035" style="stop-color:#989898;stop-opacity:0"/>
			<stop  offset="0.7337" style="stop-color:#989898;stop-opacity:0"/>
		</radialGradient>
		<path class="st10" d="M1908.7,521c-298.5,0-535.9,261.6-495.5,568c29.3,222.5,205.1,398.3,427.6,427.6
			c306.4,40.3,567.9-197.1,567.9-495.5C2408.7,744.9,2184.9,521,1908.7,521z M1762.3,621.3c12,26.7,38.9,28.2,33.2,34
			c-3,3.2-24.6-2.5-49-6c-21.3-3.1-33.6,0.2-39.8-5.5c-8.9-8.1-2.7-25,13.3-29c8.6-2.2,19.7-0.7,26.9,5c7.7,6-0.2-18-25.5-23.1
			c-2.8-0.6,1-1.4,3.2-2.3c10.9-4.4,23.5-8.9,35.7-12.1c0.9-0.2,2.7-0.4,2.3,0.4C1756.9,594.1,1757.3,610.3,1762.3,621.3z
			 M1660.5,630.1c4.6-2.8,10.5-0.2,11.6,5.1c2.5,12.4,5.7,16.1,12,20.5c15.9,11.1,39.9,15.2,50,18.7c7.5,2.5,4.8,3.3,1,4.4
			c-12.3,3.5-47.3,0.2-89,14.5c-32.9,11.3-58.6,43.7-76.7,77.5c-8.5,15.8-28.9,20.4-28.5,0.3c0.1-4.1-8-0.4-9.1,3.1
			c-10.9,34.9,24.5,36.7,15.5,45.7c-31.8,31.9-40.4,59.1-39.1,134.2c1.4,80.1-11.8,129.2-40.3,127.1c-3.4-0.2-5,4-2.3,6
			c27.4,20.8,52.6,14.3,70.5-9.9c2.8-3.8,5.9-3.2,6.9,1.5c2.6,12,6.7,27.7,23,56.9c22.7,40.6,34.2,44.7,36.4,52
			c2.6,8.3-4.2,5.6-4,22.1c0.1,22.1,11.5,57-1.9,68.7c-11.6,10-27.8,2.9-40.4-5c-2.5-1.5-3.1,3.7-1.6,6.2c3.3,5.6,16.3,26,46.2,27.3
			c45.5,1.9,21.8-81.7,55.6-68.3c14.4,5.7,18,16.5,20.8,34.8c4.8,31.9,17,39.8,1.2,52.9c-2.2,1.8-0.4,5.4,2.4,4.7
			c27.8-7.1,22.7-46.7,32.5-47.4c7.9-0.6,7.7,6.1,28.9,9.9c55.6,9.8,89.2,20,82.3,61.2c-5.4,32.1-45.5,39.4-115.7,34.6
			c-53.5-3.7-127-34.3-162.4-77C1369.9,1099.5,1425.2,776.1,1660.5,630.1z M2235.2,1342.6c40.5-92,37.6-152.8-41-233
			c-109.4-111.5-243.7-29.9-371.8-54.6c-91.7-17.6-103.4-108.7-76.4-133.7c4.8-4.5,7.4-12.7,1.9-15.9c-8.3-4.8-13-11.9-14.6-20.6
			c-3.4-18.2-2.4-30.2-0.2-34.9c2.9-6.1,6.4-3.1,6.9,1.3c1.1,9-1.7,71.3,56.9,73.4c50.9,1.8,74.7-29.4,100.2-34.6
			c22.7-4.6,39.4,5.8,79.8,26.4c36,18.3,78.3,83.4,101.5,83.3c20.3-0.1,38.8,4.4,51.3,6.2c32.1,4.6,40.5,4.3,57.7-16.3
			c4.9-5.9,9.1-1.7,10.9,5.7c3.2,13.2,6.2,38.6,14.3,67.5c13.5,48,45.9,105.3,86.8,102.6c18.9-1.3,34.5-10.1,42.8-33
			c1.2-3.2-2.6-5.4-5.3-3.3c-52.3,41.5-74.9-10.2-70.2-10.8c3.6-0.5,21.8,6.4,39.2,5.3c23.2-1.5,47.5-23.5,49.2-50.5
			c2.5-39.3-27.4-48.9-43.6-41.4c-0.8,0.4-0.6,1.6,0.3,1.6c36.6,0.5,35.3,70.4-12.3,71c-74.7,0.9-58.3-93.1-97.1-143
			c-11.1-14.2-22.7-17.9-21.9-22.2c0.5-3.1,10.8-2.2,14.2-2.1c17.2,0.9,22.7,14.5,21.1,23c-1.8,9.2,21.6-0.5,18.2-24.3
			c-1.4-10.1,5.8-6.5,6.3-12.2c0.5-5.7-3-8.9,1-15.6c5.5-9.2,8.4-11.3,7.9-17c-0.8-9.2-11.8-14.4-12.3-17.5c-0.6-3.7,8.7-2,16.6,0.4
			c5,1.5,8.1-3,5.3-7.3c-8.7-13.5-21.5-32.7-39.8-34.7c-17.7-2-13.1,10.7-36.2,5.9c-26.1-5.5-34.3-27.5-57.5-25.9
			c-6.3,0.4-24.3,5.1-46.7-22.7c-13.3-16.6-22-18.1-16.5-25.8c4.8-6.6,20.1-6.5,29.4-6c2.8,0.2,5.8-3.7,4.6-6.2
			c-39.7-79.3-76-50.5-86.7-56.8c-4.5-2.6-2.5-20.2-18.3-31.8c-11.3-8.3-39-3.6-66.9-4.7c-16.6-0.7-35.4,3.1-33.2-11.6
			c0.5-3.6,2.7-6.6,5.4-9c3.7-3.1,0.1-8.6-3.6-6.6c-22.6,12.2-20.5,29-33.2,27.1c-5.4-0.8-4-9.4-21.5-11.2
			c-44.6-4.5-64.4-42-34.3-62.6c22.5-15.4,49.1-8.1,52.2,10.8c0.5,3,4.7,3.2,5.4,0.3c5.6-22.8-15.7-36.4-10.5-37
			c271.6-34.9,523.5,179.4,523,461.3c-0.3,183-103.1,297.5-134.8,327.5C2235.3,1350.2,2233,1347.7,2235.2,1342.6z M2134.6,925.9
			c8.9,1.8,0.3,10,6.9,40.4c0.9,4.2-5.7,5.1-10,4.7c-75-7-138.9-85-197.1-107.3c-21.9-8.4-29.1-3.5-29.3-12.4
			c-0.2-9.5,33-32.3,61.1-29.9C2027,826.6,2070.5,913.1,2134.6,925.9z M2117.8,848.4c13.6-3.5,45.3,12.6,34.1,13.4
			c-8.5,0.7-19,2.4-27,7.2c-9.3,5.6-12.9,4.9-16.9-5.7C2105.4,856.7,2109.1,850.7,2117.8,848.4z M1993.5,769.5
			c-7.9,9.4-61.3-12.9-78.7-14.4c-12.8-1.1-19.5,6-24.3-0.1c-1.9-2.3,20.8-43.5,75.7-2.8c9,6.6,19.6,12.6,25.9,14.1
			C1995.9,767.2,1994.6,768.1,1993.5,769.5z M2162.1,950.6c9.2-1.6,16.5,2.4,21.9,10.4c4.5,6.7,1.3,7.8-7.2,11.4
			C2161.6,978.8,2148.6,953,2162.1,950.6z"/>
		<radialGradient id="SVGID_10_" cx="2335.2559" cy="1071.5953" r="95.6769" gradientUnits="userSpaceOnUse">
			<stop  offset="0" style="stop-color:#989898;stop-opacity:0.83"/>
			<stop  offset="0.2427" style="stop-color:#989898;stop-opacity:0"/>
			<stop  offset="0.5319" style="stop-color:#989898;stop-opacity:0"/>
		</radialGradient>
		<path class="st11" d="M1908.7,521c-298.5,0-535.9,261.6-495.5,568c29.3,222.5,205.1,398.3,427.6,427.6
			c306.4,40.3,567.9-197.1,567.9-495.5C2408.7,744.9,2184.9,521,1908.7,521z M1762.3,621.3c12,26.7,38.9,28.2,33.2,34
			c-3,3.2-24.6-2.5-49-6c-21.3-3.1-33.6,0.2-39.8-5.5c-8.9-8.1-2.7-25,13.3-29c8.6-2.2,19.7-0.7,26.9,5c7.7,6-0.2-18-25.5-23.1
			c-2.8-0.6,1-1.4,3.2-2.3c10.9-4.4,23.5-8.9,35.7-12.1c0.9-0.2,2.7-0.4,2.3,0.4C1756.9,594.1,1757.3,610.3,1762.3,621.3z
			 M1660.5,630.1c4.6-2.8,10.5-0.2,11.6,5.1c2.5,12.4,5.7,16.1,12,20.5c15.9,11.1,39.9,15.2,50,18.7c7.5,2.5,4.8,3.3,1,4.4
			c-12.3,3.5-47.3,0.2-89,14.5c-32.9,11.3-58.6,43.7-76.7,77.5c-8.5,15.8-28.9,20.4-28.5,0.3c0.1-4.1-8-0.4-9.1,3.1
			c-10.9,34.9,24.5,36.7,15.5,45.7c-31.8,31.9-40.4,59.1-39.1,134.2c1.4,80.1-11.8,129.2-40.3,127.1c-3.4-0.2-5,4-2.3,6
			c27.4,20.8,52.6,14.3,70.5-9.9c2.8-3.8,5.9-3.2,6.9,1.5c2.6,12,6.7,27.7,23,56.9c22.7,40.6,34.2,44.7,36.4,52
			c2.6,8.3-4.2,5.6-4,22.1c0.1,22.1,11.5,57-1.9,68.7c-11.6,10-27.8,2.9-40.4-5c-2.5-1.5-3.1,3.7-1.6,6.2c3.3,5.6,16.3,26,46.2,27.3
			c45.5,1.9,21.8-81.7,55.6-68.3c14.4,5.7,18,16.5,20.8,34.8c4.8,31.9,17,39.8,1.2,52.9c-2.2,1.8-0.4,5.4,2.4,4.7
			c27.8-7.1,22.7-46.7,32.5-47.4c7.9-0.6,7.7,6.1,28.9,9.9c55.6,9.8,89.2,20,82.3,61.2c-5.4,32.1-45.5,39.4-115.7,34.6
			c-53.5-3.7-127-34.3-162.4-77C1369.9,1099.5,1425.2,776.1,1660.5,630.1z M2235.2,1342.6c40.5-92,37.6-152.8-41-233
			c-109.4-111.5-243.7-29.9-371.8-54.6c-91.7-17.6-103.4-108.7-76.4-133.7c4.8-4.5,7.4-12.7,1.9-15.9c-8.3-4.8-13-11.9-14.6-20.6
			c-3.4-18.2-2.4-30.2-0.2-34.9c2.9-6.1,6.4-3.1,6.9,1.3c1.1,9-1.7,71.3,56.9,73.4c50.9,1.8,74.7-29.4,100.2-34.6
			c22.7-4.6,39.4,5.8,79.8,26.4c36,18.3,78.3,83.4,101.5,83.3c20.3-0.1,38.8,4.4,51.3,6.2c32.1,4.6,40.5,4.3,57.7-16.3
			c4.9-5.9,9.1-1.7,10.9,5.7c3.2,13.2,6.2,38.6,14.3,67.5c13.5,48,45.9,105.3,86.8,102.6c18.9-1.3,34.5-10.1,42.8-33
			c1.2-3.2-2.6-5.4-5.3-3.3c-52.3,41.5-74.9-10.2-70.2-10.8c3.6-0.5,21.8,6.4,39.2,5.3c23.2-1.5,47.5-23.5,49.2-50.5
			c2.5-39.3-27.4-48.9-43.6-41.4c-0.8,0.4-0.6,1.6,0.3,1.6c36.6,0.5,35.3,70.4-12.3,71c-74.7,0.9-58.3-93.1-97.1-143
			c-11.1-14.2-22.7-17.9-21.9-22.2c0.5-3.1,10.8-2.2,14.2-2.1c17.2,0.9,22.7,14.5,21.1,23c-1.8,9.2,21.6-0.5,18.2-24.3
			c-1.4-10.1,5.8-6.5,6.3-12.2c0.5-5.7-3-8.9,1-15.6c5.5-9.2,8.4-11.3,7.9-17c-0.8-9.2-11.8-14.4-12.3-17.5c-0.6-3.7,8.7-2,16.6,0.4
			c5,1.5,8.1-3,5.3-7.3c-8.7-13.5-21.5-32.7-39.8-34.7c-17.7-2-13.1,10.7-36.2,5.9c-26.1-5.5-34.3-27.5-57.5-25.9
			c-6.3,0.4-24.3,5.1-46.7-22.7c-13.3-16.6-22-18.1-16.5-25.8c4.8-6.6,20.1-6.5,29.4-6c2.8,0.2,5.8-3.7,4.6-6.2
			c-39.7-79.3-76-50.5-86.7-56.8c-4.5-2.6-2.5-20.2-18.3-31.8c-11.3-8.3-39-3.6-66.9-4.7c-16.6-0.7-35.4,3.1-33.2-11.6
			c0.5-3.6,2.7-6.6,5.4-9c3.7-3.1,0.1-8.6-3.6-6.6c-22.6,12.2-20.5,29-33.2,27.1c-5.4-0.8-4-9.4-21.5-11.2
			c-44.6-4.5-64.4-42-34.3-62.6c22.5-15.4,49.1-8.1,52.2,10.8c0.5,3,4.7,3.2,5.4,0.3c5.6-22.8-15.7-36.4-10.5-37
			c271.6-34.9,523.5,179.4,523,461.3c-0.3,183-103.1,297.5-134.8,327.5C2235.3,1350.2,2233,1347.7,2235.2,1342.6z M2134.6,925.9
			c8.9,1.8,0.3,10,6.9,40.4c0.9,4.2-5.7,5.1-10,4.7c-75-7-138.9-85-197.1-107.3c-21.9-8.4-29.1-3.5-29.3-12.4
			c-0.2-9.5,33-32.3,61.1-29.9C2027,826.6,2070.5,913.1,2134.6,925.9z M2117.8,848.4c13.6-3.5,45.3,12.6,34.1,13.4
			c-8.5,0.7-19,2.4-27,7.2c-9.3,5.6-12.9,4.9-16.9-5.7C2105.4,856.7,2109.1,850.7,2117.8,848.4z M1993.5,769.5
			c-7.9,9.4-61.3-12.9-78.7-14.4c-12.8-1.1-19.5,6-24.3-0.1c-1.9-2.3,20.8-43.5,75.7-2.8c9,6.6,19.6,12.6,25.9,14.1
			C1995.9,767.2,1994.6,768.1,1993.5,769.5z M2162.1,950.6c9.2-1.6,16.5,2.4,21.9,10.4c4.5,6.7,1.3,7.8-7.2,11.4
			C2161.6,978.8,2148.6,953,2162.1,950.6z"/>
		<radialGradient id="SVGID_11_" cx="2313.072" cy="1141.6494" r="95.6769" gradientUnits="userSpaceOnUse">
			<stop  offset="0" style="stop-color:#989898;stop-opacity:0.83"/>
			<stop  offset="0.2427" style="stop-color:#989898;stop-opacity:0"/>
			<stop  offset="0.5319" style="stop-color:#989898;stop-opacity:0"/>
		</radialGradient>
		<path class="st12" d="M1908.7,521c-298.5,0-535.9,261.6-495.5,568c29.3,222.5,205.1,398.3,427.6,427.6
			c306.4,40.3,567.9-197.1,567.9-495.5C2408.7,744.9,2184.9,521,1908.7,521z M1762.3,621.3c12,26.7,38.9,28.2,33.2,34
			c-3,3.2-24.6-2.5-49-6c-21.3-3.1-33.6,0.2-39.8-5.5c-8.9-8.1-2.7-25,13.3-29c8.6-2.2,19.7-0.7,26.9,5c7.7,6-0.2-18-25.5-23.1
			c-2.8-0.6,1-1.4,3.2-2.3c10.9-4.4,23.5-8.9,35.7-12.1c0.9-0.2,2.7-0.4,2.3,0.4C1756.9,594.1,1757.3,610.3,1762.3,621.3z
			 M1660.5,630.1c4.6-2.8,10.5-0.2,11.6,5.1c2.5,12.4,5.7,16.1,12,20.5c15.9,11.1,39.9,15.2,50,18.7c7.5,2.5,4.8,3.3,1,4.4
			c-12.3,3.5-47.3,0.2-89,14.5c-32.9,11.3-58.6,43.7-76.7,77.5c-8.5,15.8-28.9,20.4-28.5,0.3c0.1-4.1-8-0.4-9.1,3.1
			c-10.9,34.9,24.5,36.7,15.5,45.7c-31.8,31.9-40.4,59.1-39.1,134.2c1.4,80.1-11.8,129.2-40.3,127.1c-3.4-0.2-5,4-2.3,6
			c27.4,20.8,52.6,14.3,70.5-9.9c2.8-3.8,5.9-3.2,6.9,1.5c2.6,12,6.7,27.7,23,56.9c22.7,40.6,34.2,44.7,36.4,52
			c2.6,8.3-4.2,5.6-4,22.1c0.1,22.1,11.5,57-1.9,68.7c-11.6,10-27.8,2.9-40.4-5c-2.5-1.5-3.1,3.7-1.6,6.2c3.3,5.6,16.3,26,46.2,27.3
			c45.5,1.9,21.8-81.7,55.6-68.3c14.4,5.7,18,16.5,20.8,34.8c4.8,31.9,17,39.8,1.2,52.9c-2.2,1.8-0.4,5.4,2.4,4.7
			c27.8-7.1,22.7-46.7,32.5-47.4c7.9-0.6,7.7,6.1,28.9,9.9c55.6,9.8,89.2,20,82.3,61.2c-5.4,32.1-45.5,39.4-115.7,34.6
			c-53.5-3.7-127-34.3-162.4-77C1369.9,1099.5,1425.2,776.1,1660.5,630.1z M2235.2,1342.6c40.5-92,37.6-152.8-41-233
			c-109.4-111.5-243.7-29.9-371.8-54.6c-91.7-17.6-103.4-108.7-76.4-133.7c4.8-4.5,7.4-12.7,1.9-15.9c-8.3-4.8-13-11.9-14.6-20.6
			c-3.4-18.2-2.4-30.2-0.2-34.9c2.9-6.1,6.4-3.1,6.9,1.3c1.1,9-1.7,71.3,56.9,73.4c50.9,1.8,74.7-29.4,100.2-34.6
			c22.7-4.6,39.4,5.8,79.8,26.4c36,18.3,78.3,83.4,101.5,83.3c20.3-0.1,38.8,4.4,51.3,6.2c32.1,4.6,40.5,4.3,57.7-16.3
			c4.9-5.9,9.1-1.7,10.9,5.7c3.2,13.2,6.2,38.6,14.3,67.5c13.5,48,45.9,105.3,86.8,102.6c18.9-1.3,34.5-10.1,42.8-33
			c1.2-3.2-2.6-5.4-5.3-3.3c-52.3,41.5-74.9-10.2-70.2-10.8c3.6-0.5,21.8,6.4,39.2,5.3c23.2-1.5,47.5-23.5,49.2-50.5
			c2.5-39.3-27.4-48.9-43.6-41.4c-0.8,0.4-0.6,1.6,0.3,1.6c36.6,0.5,35.3,70.4-12.3,71c-74.7,0.9-58.3-93.1-97.1-143
			c-11.1-14.2-22.7-17.9-21.9-22.2c0.5-3.1,10.8-2.2,14.2-2.1c17.2,0.9,22.7,14.5,21.1,23c-1.8,9.2,21.6-0.5,18.2-24.3
			c-1.4-10.1,5.8-6.5,6.3-12.2c0.5-5.7-3-8.9,1-15.6c5.5-9.2,8.4-11.3,7.9-17c-0.8-9.2-11.8-14.4-12.3-17.5c-0.6-3.7,8.7-2,16.6,0.4
			c5,1.5,8.1-3,5.3-7.3c-8.7-13.5-21.5-32.7-39.8-34.7c-17.7-2-13.1,10.7-36.2,5.9c-26.1-5.5-34.3-27.5-57.5-25.9
			c-6.3,0.4-24.3,5.1-46.7-22.7c-13.3-16.6-22-18.1-16.5-25.8c4.8-6.6,20.1-6.5,29.4-6c2.8,0.2,5.8-3.7,4.6-6.2
			c-39.7-79.3-76-50.5-86.7-56.8c-4.5-2.6-2.5-20.2-18.3-31.8c-11.3-8.3-39-3.6-66.9-4.7c-16.6-0.7-35.4,3.1-33.2-11.6
			c0.5-3.6,2.7-6.6,5.4-9c3.7-3.1,0.1-8.6-3.6-6.6c-22.6,12.2-20.5,29-33.2,27.1c-5.4-0.8-4-9.4-21.5-11.2
			c-44.6-4.5-64.4-42-34.3-62.6c22.5-15.4,49.1-8.1,52.2,10.8c0.5,3,4.7,3.2,5.4,0.3c5.6-22.8-15.7-36.4-10.5-37
			c271.6-34.9,523.5,179.4,523,461.3c-0.3,183-103.1,297.5-134.8,327.5C2235.3,1350.2,2233,1347.7,2235.2,1342.6z M2134.6,925.9
			c8.9,1.8,0.3,10,6.9,40.4c0.9,4.2-5.7,5.1-10,4.7c-75-7-138.9-85-197.1-107.3c-21.9-8.4-29.1-3.5-29.3-12.4
			c-0.2-9.5,33-32.3,61.1-29.9C2027,826.6,2070.5,913.1,2134.6,925.9z M2117.8,848.4c13.6-3.5,45.3,12.6,34.1,13.4
			c-8.5,0.7-19,2.4-27,7.2c-9.3,5.6-12.9,4.9-16.9-5.7C2105.4,856.7,2109.1,850.7,2117.8,848.4z M1993.5,769.5
			c-7.9,9.4-61.3-12.9-78.7-14.4c-12.8-1.1-19.5,6-24.3-0.1c-1.9-2.3,20.8-43.5,75.7-2.8c9,6.6,19.6,12.6,25.9,14.1
			C1995.9,767.2,1994.6,768.1,1993.5,769.5z M2162.1,950.6c9.2-1.6,16.5,2.4,21.9,10.4c4.5,6.7,1.3,7.8-7.2,11.4
			C2161.6,978.8,2148.6,953,2162.1,950.6z"/>
		<path class="st13" d="M1908.7,1522c-22.5,0-45.4-1.5-68.1-4.5c-222.9-29.3-399-205.5-428.4-428.3c-9.8-74.3-3.7-147.5,18.2-217.5
			c20.9-66.9,55-127.7,101.5-180.7c46.6-53.1,102.6-95.1,166.5-124.7c66.1-30.6,136.9-46.1,210.3-46.1c67.6,0,133.2,13.2,195,39.4
			c59.7,25.2,113.2,61.4,159.2,107.4c46,46,82.1,99.6,107.4,159.2c26.1,61.8,39.4,127.4,39.4,195c0,67.6-13.2,133.2-39.4,195
			c-25.2,59.7-61.4,113.2-107.4,159.2c-46,46-99.6,82.1-159.2,107.4C2042,1508.7,1976.3,1522,1908.7,1522
			C1908.7,1522,1908.7,1522,1908.7,1522z M1662,621c-2.2,0-4.3,0.6-6.2,1.8C1540.7,694.2,1462,812.5,1440,947.2
			c-21.7,133,14.6,268.1,99.6,370.6c37.3,45,114.1,75.6,166.8,79.2c13.4,0.9,25.1,1.4,35.7,1.4c36.7,0,79.5-4.5,85.4-39.7
			c3.6-21.2-2.9-36.5-19.8-46.9c-14.8-9.1-36.5-14.2-66.7-19.6c-11.4-2-16.1-4.8-19.6-6.9c-2.8-1.6-5.4-3.2-9.4-3.2
			c-0.4,0-0.8,0-1.2,0c-6.6,0.5-8.7,8-11,16.8c-2.8,10.4-6.2,23.1-16.7,28.9c7.2-8.6,4.7-16.7,1.3-27.9c-1.9-6.3-4.3-14.2-5.8-24.5
			c-2.6-17.5-6-31.4-23.5-38.3c-3-1.2-5.6-1.7-8.2-1.7c-13.7,0-17,16-20.2,31.6c-4.7,22.8-9.5,38.9-27.7,38.9c-0.4,0-0.9,0-1.4,0
			c-23-1-35.7-13.9-41.8-23.1c9,5,16.8,7.4,23.7,7.4c6.3,0,11.8-2,16.3-6c11.1-9.6,8.3-30.1,5.6-49.9c-1.1-8.2-2.2-16-2.2-22.6
			c-0.1-7.8,1.4-10.6,2.7-12.8c1.6-2.9,2.8-5.6,1.2-10.7c-1.1-3.5-3.4-6.1-7-10c-5.9-6.5-15.7-17.3-30.2-43.3
			c-16-28.6-20.2-44.1-22.8-56.3c-1.4-6.7-5.9-7.2-7.2-7.2c-1.8,0-4.4,0.7-6.9,4.2c-10.1,13.7-22.3,20.9-35.3,20.9
			c-9.2,0-18.8-3.5-28.5-10.5c0,0,0,0,0,0c7.2,0,13.7-2.9,19.3-8.5c21-21.3,24.4-79.2,23.7-124c-1.3-73.5,6.6-100.8,38.3-132.6
			c1.9-1.9,2.8-3.9,2.7-6.1c-0.2-3.8-3.4-6.4-7-9.3c-7.3-5.8-16.3-13.1-10.3-32.4c0.2-0.3,0.7-0.8,1.4-1.3c0.4,4.5,1.8,8.1,4.3,10.7
			c2.4,2.5,5.7,3.8,9.4,3.8c8.2,0,17.5-6.6,22.5-16c15.1-28.2,40.4-64.3,75.2-76.3c27.9-9.6,53.2-11.2,70-12.3
			c8.5-0.5,15.2-1,19.7-2.2c3-0.8,6.7-1.9,6.8-5.6c0.1-4-4.3-5.5-7.6-6.6c-2.7-0.9-6.1-1.8-10-2.9c-11.8-3.1-27.9-7.4-39.5-15.5
			c-5.5-3.9-8.2-6.8-10.5-18.1C1672.6,625,1667.7,621,1662,621z M2040.6,1053.4c44.1,0,101.4,6.8,153.5,59.9
			c38.8,39.5,59.4,74.8,64.8,110.9c5,33.6-2.4,70.6-24.1,119.9c-1.6,3.6-1.6,6.7-0.2,8.9c1,1.6,2.7,2.5,4.7,2.5
			c1.9,0,3.9-0.9,5.8-2.7c22.9-21.7,137.1-139.8,137.4-333.7c0.2-125.5-48.8-243.8-138-333.2c-89.2-89.3-211.5-140.6-335.5-140.6
			c-19.7,0-39.6,1.3-59.3,3.8c-2.6,0.3-3.7,2.1-4,2.9c-1.2,2.8,0.5,5.2,3,8.5c3.7,5,9.5,12.9,9.1,23.4
			c-4.3-10.4-15.4-17.1-29.3-17.1c-9.6,0-19.3,3.2-28,9.2c-13.2,9-18.7,21.8-15.4,35.1c4.7,18.5,25.6,32.8,51.9,35.5
			c9.9,1,12.6,4.2,14.8,6.8c1.5,1.8,3.4,4,6.8,4.5c0.9,0.1,1.7,0.2,2.5,0.2c7.2,0,10.7-5,14.4-10.2c3.5-5,7.9-11.1,16.9-16.5
			c-3,3-4.9,6.5-5.5,10.3c-0.7,4.5,0.2,8.1,2.5,10.9c4.3,5.1,12.6,5.5,20.7,5.5c1.5,0,3,0,4.5,0c1.5,0,3.1,0,4.6,0
			c1.9,0,3.5,0,5,0.1c3.1,0.1,6.4,0.2,9.9,0.2c5.6,0,11.2-0.1,16.5-0.3c4.9-0.1,9.6-0.3,13.9-0.3c9.4,0,19.8,0.5,25,4.3
			c9.2,6.7,11.7,15.8,13.5,22.4c1.3,4.6,2.3,8.2,5.3,9.9c1.8,1.1,4,1.6,6.9,1.6c2.1,0,4.4-0.2,6.8-0.5c3-0.3,6.3-0.7,10-0.7
			c14.8,0,37.3,5.7,62.1,54.9c-0.2,0.3-0.5,0.7-0.8,0.9c-2.6-0.2-5-0.2-7.3-0.2c-13.4,0-21.8,2.6-25.7,8c-5.7,7.9-0.6,12.8,5.2,18.5
			c3.1,3.1,7.1,6.9,11.6,12.5c13.4,16.6,27.7,25,42.6,25c2.6,0,4.8-0.2,6.4-0.4c0.6-0.1,1.2-0.1,1.7-0.2c0.7,0,1.4-0.1,2.1-0.1
			c10,0,17,5.2,25.2,11.2c7.9,5.8,16.8,12.3,29.8,15c3.9,0.8,7.2,1.2,10.2,1.2c7.1,0,11.1-2.4,14.2-4.3c2.8-1.7,4.9-3,9.4-3
			c1,0,2,0.1,3.1,0.2c17.1,1.9,29.7,21.5,37.2,33.2c0.5,0.7,0.5,1.2,0.4,1.4c0,0.1-0.2,0.1-0.4,0.1c-0.2,0-0.5,0-0.7-0.1
			c-3.4-1.1-9.7-2.8-14.3-2.8c-1.1,0-4.4,0-6.4,2.3c-1.1,1.2-1.5,2.8-1.3,4.5c0.4,2.6,2.4,4.4,5,6.7c3.1,2.8,7,6.4,7.4,10.7
			c0.2,2.7-0.5,4.1-3.5,8.6c-1.1,1.6-2.4,3.7-3.9,6.2c-3.4,5.7-2.6,9.9-2,13.2c0.3,1.5,0.5,2.8,0.4,4.3c0,0.1,0,0.2,0,0.2
			c-0.2,0.1-0.6,0.4-0.9,0.6c-3.4,1.9-6.4,4.8-5.4,12.4c1.4,9.9-2.5,16.1-4.9,18.9c-1.9,2.2-3.8,3.5-5.2,4
			c0.6-5.6-1.3-11.7-4.9-16.4c-3.2-4.1-9.4-9.2-20.4-9.8l-0.8,0c-1.4-0.1-3.5-0.2-5.6-0.2c-3.3,0-11,0-12,5.7
			c-0.8,4.5,2.9,7.3,7.6,10.9c4.1,3.2,9.8,7.6,15.3,14.6c13.8,17.7,20.5,41.6,27,64.6c5.9,20.8,11.4,40.5,21.8,55.6
			c11.9,17.3,28.7,25.8,51.3,25.8c0,0,0.8,0,1.1,0c27.7-0.3,42.2-22.5,42.3-44.1c0-14.1-5.7-25.5-14.9-31.3c6,0.9,11.6,3.8,15.8,8.2
			c6.7,7.1,9.8,17.9,8.9,31.4c-1.6,26.3-25.5,46-45.9,47.3c-1.2,0.1-2.4,0.1-3.6,0.1c-9.9,0-20-2.4-26.7-3.9c-4-0.9-6.7-1.6-8.6-1.6
			c-0.4,0-0.7,0-1,0.1c-2.2,0.3-4.3,2.2-4.1,5.8c0.5,7.1,12.7,29.4,37.5,29.4c11.9,0,24.8-5.2,38.4-15.5
			c-7.2,17.4-19.8,26.5-38.6,27.8c-0.9,0.1-1.7,0.1-2.6,0.1c-36.1,0-67.2-52.2-80.8-100.7c-5.3-19-8.4-36.3-10.9-50.1
			c-1.3-7.1-2.4-13.2-3.5-17.8c-1.8-7.4-5.5-11.7-10.3-11.7c-2.7,0-5.3,1.4-7.7,4.3c-11.5,13.7-18.1,17.4-30.7,17.4
			c-6.1,0-13.3-0.9-23.9-2.4c-3.1-0.4-6.6-1.1-10.3-1.7c-11.6-2-26-4.6-41.6-4.6l-0.5,0c-10.7,0-29-18.9-46.7-37.3
			c-17.8-18.4-36.2-37.5-53.9-46.5c-4.2-2.2-8.2-4.2-12-6.1c-26.7-13.8-42.9-22.1-59.9-22.1c-3.7,0-7.4,0.4-11.3,1.2
			c-9.8,2-19.3,7.5-29.4,13.4c-17.4,10.1-37.1,21.6-66.8,21.6c-1.3,0-2.7,0-4.1-0.1c-50.1-1.8-52.5-50.5-53.3-66.5
			c-0.1-1.7-0.2-3.1-0.3-4c-0.6-4.9-3.6-8.3-7.4-8.3c-2.1,0-5,1-7.2,5.8c-3.2,6.8-3.2,20.9-0.1,37.7c1.9,10.2,7.7,18.3,16.7,23.5
			c0.7,0.4,1,0.9,1.1,1.7c0.3,2.3-1.4,5.6-3.8,7.8c-13.8,12.8-18,39.1-10.5,65.6c5.4,18.8,24.9,63.9,89.6,76.4
			c17.7,3.4,36.6,5.1,57.8,5.1c27.7,0,55.7-2.8,82.8-5.6C1987.5,1056.1,2014.7,1053.4,2040.6,1053.4z M2168.6,945.5
			c-1.5,0-3.1,0.1-4.7,0.4c-6,1.1-9.6,5.9-9,12.2c0.8,8.9,9.3,18.9,19.6,18.9c2.2,0,4.4-0.5,6.6-1.4l0.7-0.3c5.8-2.4,9.6-4.1,10.8-8
			c1-3.4-0.8-6.7-2.5-9.2C2184.6,949.8,2177.1,945.5,2168.6,945.5z M1962.5,815.3c-20.6,0-44.4,11.8-55.6,23.2c-4,4.2-6.1,8-6,11.3
			c0.2,8.5,5.9,9.6,12.6,10.8c4.6,0.8,10.9,2,19.6,5.4c22.7,8.7,46.5,26.1,71.6,44.5c40.1,29.4,81.5,59.7,128.5,64.1
			c0.7,0.1,1.5,0.1,2.2,0.1c2.9,0,8.2-0.5,10.9-3.8c1.3-1.7,1.8-3.8,1.3-5.9c-3.1-14.3-2.8-23.5-2.6-29.5c0.2-6.6,0.5-12.7-7.6-14.3
			c-30.4-6.1-56.8-29.9-82.3-52.8c-27.2-24.5-55.4-49.9-88.3-52.7C1965.6,815.4,1964,815.3,1962.5,815.3z M2124.4,842.1
			c-2.1,0-3.9,0.2-5.6,0.6c-5.9,1.5-10.1,4.6-12.3,8.7c-1.8,3.6-2,7.6-0.4,11.7c2.2,5.9,5.4,11.9,12,11.9c2.9,0,6.2-1.2,11-4.1
			c6-3.6,14.6-5.8,25.5-6.7c6-0.5,6.1-4.6,6.1-5.5c-0.1-1.5-0.2-5.4-13.9-11.3C2143,845.9,2133.2,842.1,2124.4,842.1z M1912.1,756.3
			c0.8,0,1.7,0,2.5,0.1c5.8,0.5,16.6,3.7,28,7.1c16.3,4.8,33.2,9.8,43.9,9.8c5.2,0,8.8-1.2,11-3.8l0.2-0.3c0.7-0.8,2.5-2.8,1.6-5.5
			c-0.9-2.9-4.1-3.7-5.4-4c-5.5-1.3-15.6-6.9-24.7-13.6c-16.9-12.5-32.6-18.8-46.7-18.8c-20.1,0-31.5,12.7-35.1,20.2
			c-1,2-2.1,5-0.2,7.3c2.1,2.7,4.9,4,8.3,4c2.2,0,4.4-0.5,6.7-1.1C1905,757.1,1908.3,756.3,1912.1,756.3z M1726.3,605.7
			c-3.1,0-6.2,0.4-9,1.1c-10.1,2.5-17.7,9.7-20,18.7c-1.7,6.7,0.1,13.2,4.8,17.5c4.9,4.5,11.8,4.7,21.3,5c5.7,0.2,12.8,0.4,21.1,1.6
			c8,1.1,15.7,2.5,22.6,3.8c10.2,1.8,18.3,3.3,23.4,3.3c2.3,0,5.2-0.2,7-2.2c1.9-1.9,2-3.9,1.8-5.2c-0.5-3.5-3.8-5.3-8.7-8
			c-7.7-4.3-19.2-10.7-26-25.6c-4.8-10.7-4.7-25.7,0.3-35.6c0.7-1.4,0.6-3-0.2-4.3c-0.5-0.8-1.7-2.2-4.3-2.2c-0.8,0-1.7,0.1-2.4,0.3
			c-11,2.9-23.7,7.2-36.6,12.4c-0.5,0.2-1,0.4-1.5,0.5c-2.3,0.8-5.5,1.9-5.2,5.3c0.1,1,0.6,3.4,4.2,4.2c10.1,2.1,16.8,7.2,20.8,11.7
			C1735.5,606.6,1730.9,605.7,1726.3,605.7z"/>
		<g class="st14">
			<linearGradient id="SVGID_12_" gradientUnits="userSpaceOnUse" x1="1908.6895" y1="1338.8975" x2="1908.6895" y2="1437.52">
				<stop  offset="0.2897" style="stop-color:#FCFCFC"/>
				<stop  offset="0.3133" style="stop-color:#E5E5E5"/>
				<stop  offset="0.3795" style="stop-color:#AAAAAA"/>
				<stop  offset="0.4455" style="stop-color:#777777"/>
				<stop  offset="0.5098" style="stop-color:#4D4D4D"/>
				<stop  offset="0.572" style="stop-color:#2D2D2D"/>
				<stop  offset="0.6316" style="stop-color:#161616"/>
				<stop  offset="0.6875" style="stop-color:#080808"/>
				<stop  offset="0.7359" style="stop-color:#030303"/>
				<stop  offset="1" style="stop-color:#030303"/>
			</linearGradient>
			<path class="st15" d="M1908.7,1513c-22.3,0-45-1.5-67.4-4.4c-220.6-29-395-203.4-424.1-424c-9.7-73.6-3.7-146.1,18-215.4
				c20.7-66.3,54.5-126.5,100.5-178.9c46.1-52.6,101.6-94.1,164.8-123.4c65.4-30.3,135.5-45.7,208.2-45.7c67,0,131.9,13.1,193,39
				c59.1,25,112.1,60.7,157.6,106.3c45.5,45.5,81.3,98.6,106.3,157.6c25.9,61.1,39,126.1,39,193c0,67-13.1,131.9-39,193
				c-25,59.1-60.7,112.1-106.3,157.6c-45.5,45.6-98.6,81.3-157.6,106.3C2040.6,1499.9,1975.7,1513,1908.7,1513
				C1908.7,1513,1908.7,1513,1908.7,1513z M1662.8,614.7c-2.8,0-5.6,0.8-8,2.3C1539,688.9,1460,807.7,1438,943
				c-21.8,133.6,14.7,269.3,100.1,372.3c37.8,45.6,115.5,76.6,168.8,80.2c13.4,0.9,25.1,1.4,35.8,1.4c37.9,0,82.3-4.8,88.6-42.5
				c8.9-53-43.1-62.2-89-70.4c-10.7-1.9-14.9-4.4-18.3-6.4c-2.9-1.7-6.2-3.7-11.2-3.7c-0.5,0-0.9,0-1.4,0.1
				c-9.1,0.6-11.7,10.1-14.1,19.3c-1.5,5.7-3.1,11-5.2,15.4c-0.3-4.7-1.8-9.4-3.3-14.5c-1.9-6.2-4.2-13.9-5.7-24
				c-2.7-17.9-6.5-33.4-25.6-40.9c-3.4-1.3-6.5-2-9.4-2c-16.5,0-20.3,18.2-23.6,34.3c-4.5,21.7-8.6,36-24.2,36c-0.4,0-0.8,0-1.2,0
				c-12.5-0.5-21.8-4.9-28.4-10.1c3.6,1,7,1.4,10.2,1.4c7.1,0,13.4-2.3,18.6-6.8c12.5-10.8,9.6-32.2,6.8-52.9
				c-1.1-8.1-2.2-15.7-2.2-22c-0.1-6.9,1.1-9.1,2.2-11c1.9-3.4,3.5-7,1.5-13.5c-1.3-4.2-4-7.2-7.7-11.3c-5.7-6.4-15.3-17-29.6-42.5
				c-15.7-28.1-19.8-43.2-22.4-55.2c-1.6-7.3-6.5-9.9-10.6-9.9c-2.1,0-6.2,0.7-9.8,5.6c-6.5,8.9-17.5,19.4-32.3,19.4
				c-6,0-12.3-1.7-18.8-5.1c4.4-1.5,8.4-4.2,12.1-7.9c17.5-17.8,25.8-60.2,24.6-126.1c-0.7-38.6,1.4-63,6.9-81.6
				c5.3-17.8,14-31.8,30.3-48.1c3.3-3.3,3.8-6.6,3.7-8.8c-0.3-5.4-4.4-8.7-8.3-11.8c-5.7-4.6-11.5-9.2-10.9-19.6
				c0.5,0.7,1.1,1.4,1.6,1.9c3.1,3.2,7.2,4.8,11.9,4.8c9.6,0,19.9-7.1,25.6-17.8c14.8-27.6,39.4-62.9,73.1-74.4
				c27.3-9.4,52.3-11,68.9-12.1c9-0.6,15.5-1,20.3-2.4c3.2-0.9,9.1-2.6,9.3-8.9c0.2-6.6-6.4-8.8-9.9-10c-2.8-0.9-6.2-1.9-10.2-2.9
				c-11.5-3.1-27.3-7.2-38.2-14.9c-4.6-3.2-6.9-5.2-9-15.9C1676.4,619.9,1670.1,614.7,1662.8,614.7z M2040.2,1052.9
				c43.3,0,99.5,6.7,150.5,58.7c38.1,38.8,58.3,73.4,63.6,108.7c4.9,32.8-2.4,69.1-23.8,117.6c-2.8,6.3-1.1,10.4,0.1,12.3
				c1.7,2.6,4.5,4.1,7.6,4.1c2,0,5-0.6,8.2-3.7c23-21.8,137.8-140.5,138.1-335.3c0.2-126-49-244.9-138.7-334.7
				c-89.6-89.7-212.4-141.2-337-141.2c-19.8,0-39.8,1.3-59.5,3.8c-3.1,0.4-5.6,2.2-6.8,5c-2,4.7,0.7,8.4,3.4,11.9
				c1.5,2,3.3,4.4,4.8,7.2c-5.9-4.1-13.6-6.5-22.2-6.5c-10.3,0-20.7,3.4-30,9.7c-14.4,9.9-20.5,24-16.7,38.8
				c5.1,19.9,27.1,35.2,54.8,38c8.4,0.9,10.4,3.2,12.4,5.5c1.7,2,4.2,5,8.9,5.7c1,0.2,2.1,0.2,3,0.2c9,0,13.4-6.2,17.3-11.7
				c1.4-2,2.9-4.1,4.7-6.2c-0.2,5.4,1.8,9,3.6,11.1c5.3,6.2,14.4,6.7,23.3,6.7c1.5,0,3,0,4.5,0c1.5,0,3.1,0,4.6,0
				c1.8,0,3.4,0,4.8,0.1c3.1,0.1,6.4,0.2,10.1,0.2c5.7,0,11.2-0.1,16.5-0.3c4.9-0.1,9.5-0.3,13.8-0.3c7.7,0,18.4,0.4,22.8,3.6
				c8.2,6,10.4,14,12.2,20.4c1.4,4.9,2.7,9.5,6.9,12c3.1,1.8,6.5,2,8.7,2c2.3,0,4.7-0.3,7.2-0.5c2.9-0.3,6.1-0.7,9.5-0.7
				c13.4,0,33.6,5.1,56.4,48.3c-0.9,0-1.8,0-2.6,0c-14.6,0-23.9,3.1-28.5,9.4c-7.4,10.3-0.2,17.4,5.6,23c3.1,3,6.9,6.7,11.2,12.1
				c14,17.4,29.2,26.3,45.2,26.3c2.7,0,5-0.2,6.7-0.4c0.6-0.1,1.1-0.1,1.5-0.2c0.6,0,1.2-0.1,1.8-0.1c8.8,0,15.1,4.6,23,10.4
				c8.1,6,17.3,12.7,31,15.6c4.1,0.9,7.7,1.3,10.9,1.3c8.1,0,12.7-2.8,16-4.8c2.6-1.6,4.1-2.5,7.6-2.5c0.8,0,1.8,0.1,2.7,0.2
				c12.9,1.4,23.5,14.9,30.8,25.7c-2.8-0.6-5.7-1.1-8.3-1.1c-4,0-7,1.2-9.1,3.5c-1.7,2-2.5,4.6-2.1,7.3c0.6,3.8,3.2,6.2,6.1,8.8
				c2.7,2.4,6,5.4,6.2,8.4c0.1,1.5,0,1.9-3,6.4c-1.1,1.7-2.4,3.7-4,6.3c-4.1,6.8-3.1,12.1-2.4,15.6c0.1,0.7,0.3,1.3,0.3,1.9
				c-3.8,2.4-7.5,6.3-6.2,15.4c1,7.1-1.1,12.1-3.5,15.3c-0.8-4.1-2.6-8.1-5.2-11.5c-3.7-4.7-10.6-10.5-22.9-11.1l-0.8,0
				c-1.4-0.1-3.6-0.2-5.8-0.2c-3.5,0-14,0-15.5,8.6c-0.4,2.3,0,4.3,0.8,6.1c-2.5-0.8-5.2-1.2-7.9-1.2c-1.7,0-3.5,0.2-5.3,0.5
				c-7.8,1.4-12.6,7.8-11.9,15.9c0.9,10.4,10.6,22,23,22c2.7,0,5.3-0.5,7.9-1.6l0.7-0.3c6-2.5,11.1-4.7,12.8-10.3
				c0.8-2.6,0.4-5.1-0.3-7.2c1.2,1.3,2.5,2.7,3.7,4.3c13.3,17.1,19.9,40.6,26.3,63.2c11.6,41.1,23.6,83.6,76.3,83.6c0,0,0.8,0,1.2,0
				c29.9-0.4,45.6-24.2,45.6-47.5c0-6.8-1.2-13.1-3.5-18.5c4.7,6.3,6.9,15.4,6.2,26.5c-1.5,24.4-23.6,42.6-42.5,43.8
				c-1.1,0.1-2.2,0.1-3.4,0.1c-9.5,0-19.3-2.3-25.8-3.8c-4.3-1-7.1-1.7-9.3-1.7c-0.5,0-1,0-1.5,0.1c-3.8,0.5-7.5,4-7.1,9.5
				c0.6,9,14.1,32.6,40.9,32.6c8.8,0,18.1-2.6,27.7-7.9c-6.7,8-15.9,12.3-28.2,13.1c-0.8,0.1-1.6,0.1-2.4,0.1
				c-34.2,0-64-50.7-77.2-97.9c-5.3-18.8-8.3-35.9-10.8-49.7c-1.3-7.1-2.4-13.2-3.5-18c-3.1-12.9-10.6-14.3-13.7-14.3
				c-2.6,0-6.6,1-10.4,5.5c-11.5,13.7-17.3,16.1-28,16.1c-5.8,0-13.2-0.9-23.3-2.3c-3-0.4-6.5-1-10.1-1.7
				c-11.7-2.1-26.2-4.6-42.1-4.6l-0.5,0c-9.2,0-27.7-19.2-44-36.1c-17.9-18.6-36.5-37.8-54.7-47c-4.2-2.1-8.2-4.2-11.9-6.1
				c-27.1-14-43.5-22.4-61.4-22.4c-4,0-7.9,0.4-12,1.3c-10.3,2.1-20.1,7.8-30.3,13.7c-17,9.9-36.2,21-64.8,21c-1.3,0-2.6,0-3.9-0.1
				c-41.8-1.5-48.5-36.6-49.8-62.9c-0.1-1.8-0.2-3.2-0.3-4.3c-0.8-6.7-5.2-11.4-10.9-11.4c-2.5,0-7.2,1-10.4,7.8
				c-3.5,7.5-3.7,22-0.4,39.7c2,10.9,8.1,19.7,17.7,25.5c-0.2,1-1.1,2.9-2.6,4.3c-14.7,13.6-19.3,41.3-11.4,68.9
				c5.5,19.4,25.6,65.8,92.1,78.6c17.9,3.4,36.9,5.1,58.3,5.1c27.8,0,55.8-2.8,82.9-5.6C1988.8,1055.5,2014.5,1052.9,2040.2,1052.9z
				 M1962.3,808.5c-22.3,0-46.5,12.5-57.9,24.2c-4.8,4.9-7.1,9.4-7,13.8c0.3,11.3,9,12.9,15.4,14.1c4.4,0.8,10.5,1.9,19,5.2
				c22.2,8.5,45.7,25.7,70.6,44c38.4,28.2,82,60.1,129.9,64.6c0.8,0.1,1.7,0.1,2.6,0.1c4.3,0,10.2-0.9,13.6-5.1c2-2.5,2.7-5.7,2-8.9
				c-3-13.8-2.7-22.7-2.5-28.6c0.2-6.6,0.6-15.7-10.4-17.9c-29.4-5.9-55.3-29.3-80.4-51.9c-27.6-24.9-56.1-50.6-90.1-53.4
				C1965.6,808.6,1964,808.5,1962.3,808.5z M2123.8,835.2c-2.3,0-4.5,0.3-6.4,0.8c-8.6,2.3-12.6,7-14.5,10.5
				c-2.3,4.4-2.5,9.5-0.6,14.5c1.6,4.2,5.3,14.1,15.2,14.1c4.5,0,8.8-2.2,12.8-4.6c5.5-3.3,13.5-5.4,23.9-6.2c7.6-0.6,9.5-6,9.3-9.1
				c-0.1-3.6-2.1-8.4-16-14.3C2143.5,839.2,2133.1,835.2,2123.8,835.2z M1912.1,756.7c0.7,0,1.5,0,2.2,0.1
				c5.5,0.5,16.5,3.8,27.2,6.9c16.5,4.9,33.6,9.9,44.8,9.9c6.3,0,10.8-1.6,13.6-5l0.2-0.2c0.9-1.1,3.8-4.3,2.3-8.9
				c-1.5-4.8-6.3-6-7.9-6.3c-5-1.2-14.8-6.7-23.3-13c-17.5-12.9-33.8-19.4-48.7-19.4c-21.8,0-34.2,13.9-38.2,22.1
				c-2.1,4.5-2.1,8.2,0.2,11c2.8,3.5,6.5,5.3,11,5.3c2.6,0,5-0.6,7.5-1.2C1905.8,757.4,1908.7,756.7,1912.1,756.7z M1726.2,599.6
				c-3.2,0-6.3,0.4-9.2,1.2c-11.3,2.8-19.9,11-22.5,21.2c-2,7.9,0.2,15.7,5.8,20.9c5.8,5.3,13.6,5.6,23.5,5.9
				c5.9,0.2,12.5,0.4,20.7,1.5c7.9,1.1,15.6,2.5,22.4,3.7c10.4,1.9,18.6,3.3,23.9,3.3c2.7,0,6.7-0.3,9.5-3.2c3-3.1,3-6.4,2.8-8.1
				c-0.8-5.2-5.3-7.7-10.4-10.6c-7.2-4-18.2-10.1-24.4-23.9c-4.3-9.6-4.2-23.6,0.2-32.5c1.3-2.5,1.1-5.4-0.3-7.7
				c-0.7-1.2-2.9-3.8-7.3-3.8c-1.4,0-2.7,0.3-3.3,0.4c-11.1,2.9-23.9,7.2-36.9,12.5c-0.4,0.2-0.9,0.3-1.3,0.5
				c-2.2,0.8-8,2.8-7.6,8.9c0.1,1,0.7,6.1,7,7.4C1721.4,597.7,1723.9,598.6,1726.2,599.6z"/>
		</g>
		<g class="st16">
			<path class="st17" d="M1909.9,1520c-22.3,0-45-1.5-67.4-4.4c-220.6-29-395-203.4-424.1-424c-9.7-73.6-3.7-146.1,18-215.4
				c20.7-66.3,54.5-126.4,100.5-178.9c46.1-52.6,101.6-94.1,164.8-123.4c65.4-30.3,135.5-45.7,208.2-45.7c67,0,131.9,13.1,193,39
				c59.1,25,112.1,60.7,157.6,106.3c45.5,45.5,81.3,98.6,106.3,157.6c25.9,61.1,39,126.1,39,193c0,67-13.1,131.9-39,193
				c-25,59.1-60.7,112.1-106.3,157.6c-45.5,45.5-98.6,81.3-157.6,106.3C2041.8,1506.9,1976.9,1520,1909.9,1520
				C1909.9,1520,1909.9,1520,1909.9,1520z M1663.7,620.8c-2.9,0-5.8,0.8-8.3,2.4c-116,72-195.1,191-217.2,326.6
				c-21.8,133.9,14.7,269.9,100.3,373.1c39.3,47.4,116.6,76.9,169.3,80.5c13.5,0.9,25.2,1.4,35.9,1.4c38.2,0,82.8-4.9,89.2-43
				c3.9-22.9-3.2-39.6-21.6-50.9c-15.3-9.4-37.3-14.7-67.9-20.1c-10.6-1.9-14.8-4.4-18.2-6.4c-3-1.8-6.3-3.7-11.4-3.7
				c-0.5,0-1,0-1.5,0.1c-9.5,0.7-12.1,10.3-14.6,19.7c-1.3,5-2.7,9.6-4.4,13.6c-0.6-4.1-1.8-8.3-3.2-12.7
				c-1.9-6.2-4.2-13.8-5.7-23.9c-2.7-18.1-6.6-33.7-25.9-41.4c-3.4-1.4-6.6-2-9.6-2c-16.9,0-20.8,18.4-24.1,34.7
				c-4.6,22.2-8.5,35.6-23.7,35.6c-0.4,0-0.8,0-1.2,0c-11.2-0.5-19.8-4-26.2-8.5c2.7,0.6,5.4,0.9,7.9,0.9c7.3,0,13.6-2.3,18.9-6.9
				c12.7-11,9.8-32.6,6.9-53.4c-1.1-8.1-2.2-15.7-2.2-22c-0.1-6.8,1.1-8.9,2.1-10.8c1.9-3.4,3.6-7.2,1.5-13.9
				c-1.3-4.3-4.1-7.3-7.8-11.5c-5.7-6.3-15.3-17-29.6-42.4c-15.7-28-19.8-43.2-22.4-55.1c-1.7-7.6-6.8-10.3-11.1-10.3
				c-2.2,0-6.5,0.8-10.2,5.8c-6.5,8.8-17.3,19.2-32,19.2c-5.7,0-11.5-1.5-17.5-4.5c4-1.6,7.8-4.2,11.2-7.6
				c17.6-17.9,25.9-60.5,24.8-126.6c-1.3-77,8.5-100.8,37-129.4c3.4-3.4,3.9-6.9,3.8-9.2c-0.3-5.6-4.5-9-8.5-12.2
				c-5.3-4.3-10.7-8.6-10.8-17.8c0.3,0.3,0.5,0.6,0.8,0.8c3.2,3.2,7.5,5,12.3,5c9.8,0,20.3-7.3,26.1-18.1
				c14.7-27.5,39.3-62.7,72.9-74.3c27.3-9.4,52.3-11,68.8-12.1c9.1-0.6,15.6-1,20.5-2.4c3.1-0.9,9.5-2.7,9.7-9.4
				c0.2-6.9-6.9-9.3-10.3-10.5c-2.8-0.9-6.3-1.9-10.3-2.9c-11.5-3-27.2-7.2-38.1-14.9c-4.3-3-6.6-4.6-8.8-15.6
				C1677.8,626.2,1671.3,620.8,1663.7,620.8z M2041.6,1060.4c43.2,0,99.3,6.7,150.3,58.6c38.1,38.8,58.3,73.3,63.5,108.5
				c4.9,32.8-2.4,69-23.8,117.5c-2.9,6.5-1.2,10.8,0.1,12.7c1.8,2.7,4.8,4.3,8,4.3c2.1,0,5.2-0.7,8.6-3.8
				c23.1-21.9,138.1-140.8,138.4-336c0.2-126.3-49.1-245.4-138.9-335.4c-89.7-89.9-212.8-141.5-337.7-141.5
				c-19.8,0-39.9,1.3-59.7,3.8c-3.3,0.4-5.9,2.4-7.2,5.3c-2.1,5,0.8,8.9,3.4,12.4c1.2,1.6,2.5,3.3,3.7,5.4
				c-5.7-3.5-12.8-5.4-20.7-5.4c-10.4,0-20.9,3.4-30.3,9.8c-14.4,9.9-20.7,24.6-16.9,39.4c5.1,20.1,27.3,35.6,55.3,38.4
				c8.2,0.8,10.1,3,12,5.4c1.7,2.1,4.4,5.2,9.3,5.9c1.1,0.2,2.1,0.2,3.1,0.2c9.3,0,13.7-6.3,17.7-11.9c1.2-1.7,2.4-3.4,3.8-5.1
				c0.1,4.8,2,8.1,3.7,10.1c5.4,6.3,14.7,6.9,23.7,6.9c1.5,0,3,0,4.5,0c1.5,0,3.1,0,4.6,0c1.8,0,3.4,0,4.8,0.1
				c3.1,0.1,6.4,0.2,10.1,0.2c5.7,0,11.2-0.1,16.6-0.3c4.9-0.1,9.5-0.3,13.8-0.3c4.9,0,17.7,0,22.5,3.5c8,5.9,10.2,13.8,12,20.2
				c1.4,5,2.7,9.7,7.1,12.3c3.2,1.9,6.7,2.1,9,2.1c2.3,0,4.7-0.3,7.3-0.5c3-0.3,6.1-0.7,9.5-0.7c13.2,0,33.1,5,55.7,47.4
				c-0.6,0-1.2,0-1.8,0c-14.8,0-24.3,3.1-28.9,9.6c-7.7,10.7,0,18.2,5.7,23.7c3.1,3,6.9,6.7,11.2,12.1
				c14.1,17.6,29.5,26.5,45.6,26.5c2.8,0,5.1-0.2,6.8-0.4c0.6-0.1,1.1-0.1,1.5-0.1c0.6,0,1.2-0.1,1.8-0.1c8.7,0,14.9,4.6,22.7,10.3
				c8.2,6,17.4,12.8,31.3,15.7c4.1,0.9,7.7,1.3,11,1.3c8.3,0,12.9-2.8,16.3-4.8c2.6-1.5,4-2.4,7.3-2.4c0.8,0,1.7,0.1,2.7,0.2
				c12.3,1.4,22.5,13.9,29.7,24.5c-2.5-0.5-5-0.8-7.1-0.8c-4.1,0-7.3,1.2-9.4,3.7c-1.8,2.1-2.6,4.9-2.2,7.7c0.6,4,3.3,6.5,6.2,9.1
				c2.6,2.4,5.8,5.3,6.1,8c0.1,1.3,0,1.6-2.9,6.1c-1.1,1.7-2.4,3.7-4,6.3c-4.2,7-3.2,12.4-2.5,16c0.1,0.6,0.2,1.1,0.3,1.6
				c-3.6,2.3-7.5,6.6-6.2,15.8c0.9,6.3-0.7,11-2.7,14.1c-0.9-3.8-2.6-7.4-5.1-10.6c-3.7-4.8-10.8-10.6-23.3-11.3l-0.8,0
				c-1.4-0.1-3.6-0.2-5.9-0.2c-3.6,0-14.4,0-16,9c-0.4,2-0.2,3.8,0.4,5.4c-2.3-0.6-4.6-0.9-7-0.9c-1.8,0-3.6,0.2-5.4,0.5
				c-8.1,1.4-13.1,8.1-12.3,16.5c0.9,10.7,10.8,22.5,23.5,22.5c2.8,0,5.5-0.6,8.1-1.7l0.7-0.3c6.1-2.6,11.4-4.8,13.1-10.6
				c0.6-1.9,0.6-3.8,0.2-5.5c0.7,0.9,1.5,1.8,2.2,2.7c13.3,17.1,19.9,40.5,26.3,63.1c11.7,41.3,23.8,84.1,76.8,84.1c0,0,0.8,0,1.2,0
				c30.3-0.4,46.1-24.5,46.2-48.1c0-5.2-0.7-10.1-2.1-14.5c3,5.9,4.3,13.5,3.8,22.5c-1.5,23.4-23.4,42.2-42.1,43.4
				c-1.1,0.1-2.2,0.1-3.4,0.1c-9.5,0-19.3-2.3-25.8-3.8c-4.3-1-7.1-1.7-9.5-1.7c-0.5,0-1,0-1.5,0.1c-4.1,0.6-8,4.2-7.5,10.1
				c0.6,9.1,14.3,33.1,41.4,33.1c8.2,0,16.7-2.2,25.5-6.6c-6.4,6.6-15,10.1-25.9,10.8c-0.8,0.1-1.6,0.1-2.3,0.1
				c-33.9,0-63.6-50.6-76.8-97.6c-5.3-18.8-8.3-35.9-10.8-49.7c-1.3-7.1-2.4-13.3-3.5-18c-3.2-13.3-11-14.7-14.2-14.7
				c-2.7,0-6.8,1-10.8,5.7c-11.4,13.5-17.1,16-27.6,16c-5.8,0-13.2-0.9-23.2-2.3c-3-0.4-6.5-1-10.1-1.7c-11.7-2.1-26.3-4.6-42.2-4.6
				l-0.5,0c-9,0-28.2-19.9-43.7-35.9c-18-18.6-36.6-37.9-54.9-47.2c-4.2-2.1-8.2-4.2-11.9-6.1c-27.2-14-43.7-22.5-61.7-22.5
				c-4,0-8,0.4-12.1,1.3c-10.4,2.1-20.2,7.8-30.5,13.8c-16.9,9.8-36.1,21-64.6,21c-1.3,0-2.6,0-3.9-0.1c-41.5-1.5-48-36.4-49.3-62.5
				c-0.1-1.9-0.2-3.2-0.3-4.3c-0.8-7-5.5-11.9-11.4-11.9c-2.6,0-7.6,1.1-10.9,8.1c-3.6,7.6-3.7,22.2-0.5,40.1
				c2,11,8.1,19.8,17.6,25.6c-0.3,1-1.1,2.5-2.4,3.7c-14.9,13.8-19.5,41.7-11.6,69.5c5.6,19.5,25.7,66.2,92.6,79.1
				c17.9,3.4,37,5.1,58.4,5.1c27.8,0,55.9-2.8,83-5.6C1990.1,1063.1,2015.8,1060.4,2041.6,1060.4z M1963.6,814.8
				c-22.5,0-46.8,12.6-58.3,24.4c-4.9,5-7.2,9.7-7.1,14.2c0.3,11.7,9.3,13.4,15.8,14.6c4.4,0.8,10.5,1.9,18.9,5.2
				c22.1,8.5,45.6,25.7,70.5,43.9c38.5,28.2,82.2,60.3,130.2,64.7c0.8,0.1,1.7,0.1,2.6,0.1c4.4,0,10.4-0.9,14-5.3
				c2.1-2.6,2.9-5.9,2.1-9.3c-3-13.8-2.7-22.6-2.5-28.5c0.2-6.4,0.6-16.1-10.8-18.4c-29.3-5.9-55.2-29.2-80.2-51.8
				c-27.7-24.9-56.3-50.7-90.5-53.6C1966.9,814.8,1965.2,814.8,1963.6,814.8z M2125.2,841.5c-2.4,0-4.6,0.3-6.6,0.8
				c-6.9,1.8-12.2,5.6-14.8,10.8c-2.3,4.5-2.6,9.8-0.6,14.9c1.6,4.3,5.5,14.4,15.7,14.4c4.7,0,9-2.2,13-4.6
				c5.4-3.3,13.4-5.3,23.7-6.1c7-0.5,10-5.4,9.8-9.6C2164.9,849.6,2135.3,841.5,2125.2,841.5z M1913.3,764c0.7,0,1.4,0,2.1,0.1
				c5.4,0.5,16.5,3.7,27.2,6.9c16.6,4.9,33.7,10,45,10c6.5,0,11.1-1.7,14-5.2l0.2-0.2c2.6-3,3.5-6.2,2.4-9.3
				c-1.6-5.1-6.7-6.3-8.3-6.7c-4.2-1-13.5-5.8-23.2-12.9c-17.6-13-34.1-19.6-49-19.6c-22,0-34.7,14.1-38.7,22.4
				c-2.2,4.7-2.1,8.5,0.3,11.5c2.9,3.6,6.9,5.5,11.4,5.5c2.6,0,5.1-0.6,7.6-1.2C1907.1,764.7,1909.9,764,1913.3,764z M1724.9,605.7
				c-2.4,0.2-4.8,0.5-7.1,1.1c-11.5,2.9-20.3,11.2-22.9,21.6c-2.1,8.1,0.2,16.1,6,21.4c6,5.5,13.8,5.7,23.8,6
				c5.9,0.2,12.5,0.4,20.6,1.5c7.9,1.1,15.6,2.5,22.4,3.7c10.4,1.9,18.6,3.3,24,3.3c2.8,0,7-0.4,9.9-3.4c3.2-3.3,3.2-6.8,2.9-8.6
				c-0.8-5.5-5.4-8-10.7-11c-7.2-4-18-10-24.2-23.7c-4.3-9.5-4.2-23.3,0.2-32.1c1.3-2.7,1.2-5.7-0.3-8.2c-0.8-1.2-3-4.1-7.8-4.1
				c-1.5,0-2.8,0.3-3.4,0.4c-11.2,2.9-24,7.3-37,12.6c-0.4,0.2-0.9,0.3-1.3,0.5c-2.3,0.8-8.4,2.9-8,9.4c0.1,1.1,0.8,6.5,7.4,7.8
				C1721.5,604.6,1723.2,605.1,1724.9,605.7z"/>
		</g>
		<path class="st18" d="M1908.7,1519.9c-22.4,0-45.3-1.5-67.8-4.5c-222-29.2-397.4-204.6-426.7-426.6c-9.8-74-3.7-146.9,18.1-216.7
			c20.8-66.7,54.8-127.2,101.1-180c46.4-52.9,102.2-94.7,165.8-124.2c65.8-30.5,136.3-46,209.4-46c67.4,0,132.7,13.2,194.2,39.2
			c59.4,25.1,112.8,61.1,158.6,106.9c45.8,45.8,81.8,99.2,106.9,158.6c26,61.5,39.2,126.8,39.2,194.2c0,67.4-13.2,132.7-39.2,194.2
			c-25.1,59.4-61.1,112.8-106.9,158.6c-45.8,45.8-99.2,81.8-158.6,106.9C2041.4,1506.8,1976.1,1519.9,1908.7,1519.9
			C1908.7,1519.9,1908.7,1519.9,1908.7,1519.9z M1662,618.9c-2.5,0-5.1,0.7-7.2,2.1c-115.7,71.8-194.7,190.6-216.7,325.9
			c-21.8,133.6,14.7,269.3,100.1,372.2c37.6,45.4,115.1,76.3,168.2,79.9c13.4,0.9,25.2,1.4,35.8,1.4c37.5,0,81.2-4.7,87.4-41.4
			c8-47.9-33.2-59.1-88.1-68.8c-11-1.9-15.6-4.7-18.9-6.7c-2.9-1.7-5.8-3.5-10.4-3.5c-0.4,0-0.9,0-1.3,0
			c-8.1,0.6-10.4,9.2-12.8,18.3c-1.9,7-4,15-8.4,21c1.2-6.3-0.8-12.8-3-20.1c-1.9-6.2-4.2-14-5.8-24.2c-2.6-17.5-6.3-32.6-24.7-39.9
			c-3.2-1.3-6.1-1.9-8.9-1.9c-15.3,0-18.8,16.9-22.2,33.2c-4.7,22.5-9,37.3-25.7,37.3c-0.4,0-0.8,0-1.3,0
			c-16.8-0.7-27.9-8.1-34.8-15.4c6.1,2.5,11.6,3.7,16.6,3.7c6.8,0,12.7-2.2,17.7-6.5c11.9-10.3,9.1-31.4,6.3-51.7
			c-1.1-8.2-2.2-15.9-2.2-22.3c-0.1-7.3,1.2-9.7,2.4-11.8c1.8-3.3,3.2-6.4,1.3-12.3c-1.2-3.9-3.8-6.8-7.4-10.8
			c-5.8-6.4-15.5-17.2-29.9-42.9c-15.9-28.3-20-43.7-22.6-55.8c-1.4-6.5-5.7-8.8-9.2-8.8c-2.2,0-5.5,0.9-8.6,5
			c-6.8,9.2-18.1,20.1-33.7,20.1c-7.3,0-14.9-2.4-22.7-7.1c5.5-1.2,10.5-4,14.9-8.5c21.5-21.8,25-80.3,24.2-125.4
			c-1.3-72.8,6.5-99.8,37.7-131.1c2.9-2.9,3.3-5.8,3.2-7.7c-0.3-4.7-3.9-7.7-7.7-10.7c-6.5-5.2-13.8-11.1-10.9-25.7
			c0.8,2.2,2,4.1,3.6,5.7c2.8,2.9,6.6,4.4,10.8,4.4c9.1,0,18.9-6.8,24.3-17c14.9-27.9,39.9-63.6,74.1-75.4
			c27.6-9.5,52.8-11.1,69.5-12.2c9-0.6,15.4-1,20.1-2.3c3-0.9,8.1-2.3,8.2-7.5c0.1-5.5-5.5-7.4-8.9-8.5c-2.7-0.9-6.2-1.8-10.2-2.9
			c-11.6-3.1-27.6-7.3-38.8-15.2c-4.8-3.4-7.4-5.6-9.7-16.9C1674.4,623.7,1668.6,618.9,1662,618.9z M2040.6,1055.4
			c43.7,0,100.5,6.7,152.1,59.3c38.5,39.2,58.9,74.1,64.2,109.8c5,33.2-2.4,69.9-24,118.8c-1.8,4.2-1.9,8.1,0,10.9
			c1.4,2.1,3.8,3.4,6.4,3.4c2.5,0,4.9-1.1,7.2-3.3c23-21.8,137.7-140.4,138.1-335.2c0.2-126-49-244.8-138.6-334.6
			c-89.6-89.7-212.4-141.2-336.9-141.2c-19.8,0-39.8,1.3-59.5,3.8c-2.6,0.3-4.6,1.8-5.6,4.1c-1.7,3.9,0.7,7.1,3.2,10.5
			c2.4,3.3,5.8,7.8,7.5,13.6c-6-6.5-15.3-10.5-26.2-10.5c-10,0-20.1,3.3-29.2,9.5c-13.9,9.5-19.8,23.1-16.2,37.3
			c4.9,19.4,26.5,34.2,53.6,37c9.1,0.9,11.4,3.7,13.4,6.1c1.6,1.9,3.9,4.6,8,5.2c1,0.1,1.9,0.2,2.8,0.2c8.2,0,12.2-5.6,16.1-11.1
			c2.1-3,4.6-6.4,8.2-9.8c-0.2,0.7-0.3,1.4-0.5,2.1c-0.8,5.1,0.2,9.3,3,12.5c4.9,5.7,13.7,6.2,22.2,6.2c1.5,0,3,0,4.5,0
			c1.5,0,3.1,0,4.6,0c1.9,0,3.5,0,4.9,0.1c3.1,0.1,6.4,0.2,10,0.2c5.7,0,11.2-0.1,16.5-0.3c4.9-0.1,9.5-0.3,13.9-0.3
			c8.6,0,19,0.4,23.8,3.9c8.6,6.3,10.9,14.6,12.8,21.3c1.3,4.8,2.5,9,6.2,11.1c2.8,1.7,5.9,1.8,8,1.8c2.2,0,4.6-0.3,7.1-0.5
			c2.9-0.3,6.2-0.7,9.7-0.7c14.1,0,35.4,5.4,59.2,51.6c-1.8-0.1-3.5-0.1-5.2-0.1c-14.1,0-23.1,2.9-27.3,8.8
			c-6.7,9.3-0.5,15.3,5.5,21.1c3.1,3,7,6.8,11.4,12.3c13.8,17.1,28.6,25.8,44.1,25.8c2.7,0,4.9-0.2,6.6-0.4c0.6-0.1,1.1-0.1,1.6-0.2
			c0.7,0,1.3-0.1,1.9-0.1c9.4,0,15.8,4.7,24,10.8c8,5.9,17.1,12.6,30.5,15.4c4,0.8,7.5,1.3,10.6,1.3c7.7,0,11.9-2.5,15.2-4.6
			c2.7-1.6,4.4-2.7,8.4-2.7c0.9,0,1.9,0.1,2.9,0.2c15,1.7,26.6,18.2,34.1,29.7c-3.8-1-8.2-2-11.7-2c-1.3,0-5.3,0-7.9,3
			c-1.4,1.7-2.1,3.9-1.7,6.1c0.5,3.3,2.9,5.4,5.6,7.9c2.9,2.6,6.4,5.8,6.7,9.4c0.2,2-0.3,2.9-3.2,7.4c-1.1,1.7-2.4,3.7-3.9,6.3
			c-3.8,6.4-2.9,11.1-2.2,14.6c0.2,1.1,0.4,2.1,0.4,3c-3.8,2.2-7.6,5.6-6.3,14.4c1.2,8.1-1.5,13.5-3.9,16.6
			c-0.7,0.9-1.5,1.7-2.2,2.3c-0.4-4.9-2.2-9.9-5.4-13.9c-3.5-4.5-10.1-9.9-21.9-10.6l-0.8,0c-1.4-0.1-3.6-0.2-5.8-0.2
			c-3.5,0-12.7,0-14,7.3c-0.7,4.1,1.5,7.1,4.6,9.8c-4-2.4-8.4-3.6-13.1-3.6c-1.6,0-3.3,0.2-5,0.5c-7.1,1.3-11.3,6.9-10.7,14.4
			c0.9,9.8,9.9,20.7,21.6,20.7c2.5,0,5-0.5,7.3-1.5l0.7-0.3c5.9-2.5,10.5-4.4,12-9.3c1.3-4.2-0.8-8-2.7-10.9c-1.3-2-2.8-3.8-4.3-5.3
			c3.8,3,8.5,7,13.1,12.8c13.5,17.4,20.2,41.1,26.7,63.9c11.5,40.7,23.4,82.8,75.1,82.8c0,0,0.8,0,1.2,0c29-0.3,44.2-23.5,44.3-46.2
			c0-10.5-3-19.5-8.2-26.1c2,1.2,3.9,2.7,5.5,4.4c6.3,6.7,9.2,17,8.4,29.8c-1.6,25.2-24.5,44.1-44.1,45.4c-1.1,0.1-2.3,0.1-3.5,0.1
			c-9.7,0-19.7-2.3-26.3-3.9c-4.2-1-6.9-1.6-9-1.6c-0.4,0-0.9,0-1.3,0.1c-3,0.4-6.2,3.1-5.8,7.9c0.6,8.6,13.6,31.3,39.5,31.3
			c10.4,0,21.6-3.8,33.1-11.3c-7.2,12.2-18,18.5-33.4,19.6c-0.8,0.1-1.7,0.1-2.5,0.1c-35,0-65.5-51.5-78.9-99.3
			c-5.3-18.9-8.4-36.1-10.9-49.9c-1.3-7.1-2.4-13.2-3.5-18c-2.8-11.9-9.5-13.2-12.2-13.2c-2.3,0-5.8,0.9-9.3,5
			c-11,13.1-17.3,16.7-29.2,16.7c-5.9,0-13.4-0.9-23.6-2.4c-3-0.4-6.5-1-10.2-1.7c-11.7-2-26.2-4.6-42-4.6l-0.5,0
			c-9.8,0-28.7-19.5-45.3-36.6c-17.9-18.5-36.4-37.7-54.4-46.9c-4.2-2.2-8.2-4.2-12-6.1c-27-13.9-43.3-22.3-60.9-22.3
			c-3.9,0-7.7,0.4-11.8,1.2c-10.1,2.1-19.8,7.7-30,13.6c-17.2,10-36.7,21.3-65.8,21.3c-1.3,0-2.7,0-4-0.1
			c-43.2-1.5-50-37.6-51.4-64.6c-0.1-1.8-0.2-3.1-0.3-4.2c-0.7-6-4.6-10.1-9.4-10.1c-2.2,0-6.2,0.9-9.1,7
			c-3.4,7.2-3.5,21.7-0.3,38.9c2,10.8,8.1,19.4,17.7,24.9c0.1,0,0.1,0.1,0.1,0.1c0.3,0.7-0.6,3.9-3.1,6.3
			c-14.4,13.3-18.8,40.4-11,67.6c5.5,19.2,25.3,65.1,91.2,77.8c17.8,3.4,36.9,5.1,58.2,5.1c27.8,0,55.8-2.8,83-5.6
			C1987.7,1058.1,2014.8,1055.4,2040.6,1055.4z M1962.5,813.3c-21.9,0-45.8,12.3-57,23.8c-4.5,4.6-6.6,8.8-6.5,12.8
			c0.3,10.1,7.7,11.5,14.2,12.7c4.5,0.8,10.7,2,19.3,5.3c22.4,8.6,46.1,25.9,71.1,44.3c38.4,28.1,81.9,60,129.5,64.5
			c0.8,0.1,1.6,0.1,2.4,0.1c3.3,0,9.2-0.6,12.4-4.6c1.7-2.2,2.3-4.9,1.7-7.6c-3.1-14-2.7-23.1-2.5-29c0.2-6.4,0.5-14.5-9.2-16.4
			c-29.9-6-56-29.6-81.3-52.4c-27.5-24.8-55.9-50.4-89.5-53.2C1965.7,813.3,1964.1,813.3,1962.5,813.3z M2124.4,840.1
			c-2.2,0-4.3,0.2-6.1,0.7c-6.4,1.7-11.1,5.1-13.6,9.8c-2.1,4-2.3,8.8-0.5,13.3c1.6,4.3,5,13.2,13.9,13.2c3.4,0,6.9-1.3,12-4.4
			c5.7-3.4,14-5.6,24.6-6.4c6.5-0.5,8.1-5,8-7.6C2162.3,848.4,2135,840.1,2124.4,840.1z M1912.1,758.3c0.8,0,1.5,0,2.3,0.1
			c5.6,0.5,16.3,3.7,27.6,7c16.5,4.9,33.5,9.9,44.5,9.9c5.9,0,10-1.5,12.5-4.5l0.2-0.3c0.8-0.9,3.2-3.7,2-7.4c-1.3-4-5.3-5-6.9-5.3
			c-5.2-1.3-15.1-6.7-23.9-13.3c-17.2-12.7-33.4-19.2-47.9-19.2c-21.1,0-33.1,13.4-36.9,21.3c-0.7,1.5-2.8,5.9,0,9.4
			c2.5,3.2,5.9,4.8,9.9,4.8c2.4,0,4.7-0.6,7.2-1.2C1905.5,759,1908.5,758.3,1912.1,758.3z M1726.3,603.7c-3.3,0-6.5,0.4-9.5,1.1
			c-10.8,2.7-19,10.4-21.5,20.2c-1.9,7.4,0.1,14.7,5.4,19.5c5.4,5,13,5.2,22.6,5.5c5.9,0.2,12.7,0.4,20.9,1.6
			c8,1.1,15.7,2.5,22.5,3.7c10.3,1.9,18.5,3.3,23.7,3.3c2.7,0,6.1-0.3,8.5-2.8c2.6-2.7,2.6-5.4,2.4-6.9c-0.7-4.5-4.7-6.7-9.7-9.5
			c-7.4-4.1-18.7-10.4-25.1-24.7c-4.6-10.2-4.5-24.4,0.3-33.9c1-2,0.9-4.4-0.2-6.3c-0.7-1.2-2.5-3.1-6-3.1c-0.9,0-2,0.1-2.9,0.4
			c-11.1,2.9-23.8,7.2-36.8,12.5c-0.4,0.2-0.9,0.3-1.4,0.5c-2.3,0.8-6.9,2.4-6.6,7.4c0.1,1.1,0.7,5,5.8,6c5.6,1.1,10.2,3.3,13.7,5.8
			C1730.2,603.9,1728.2,603.7,1726.3,603.7z"/>
		<radialGradient id="SVGID_13_" cx="2097.408" cy="616.2822" r="488.6215" gradientUnits="userSpaceOnUse">
			<stop  offset="0.1952" style="stop-color:#FCFCFC"/>
			<stop  offset="0.4492" style="stop-color:#FCFCFC;stop-opacity:0"/>
		</radialGradient>
		<path class="st19" d="M1908.7,1521.9c-22.5,0-45.4-1.5-68.1-4.5c-222.8-29.3-399-205.5-428.4-428.3
			c-9.8-74.3-3.7-147.5,18.2-217.5c20.9-66.9,55-127.7,101.5-180.7c46.6-53.1,102.6-95.1,166.5-124.7
			c66.1-30.6,136.8-46.1,210.3-46.1c67.6,0,133.2,13.2,195,39.4c59.6,25.2,113.2,61.3,159.2,107.4c46,46,82.1,99.6,107.4,159.2
			c26.1,61.8,39.4,127.4,39.4,195c0,67.6-13.2,133.2-39.4,195c-25.2,59.6-61.3,113.2-107.4,159.2c-46,46-99.6,82.1-159.2,107.4
			C2041.9,1508.7,1976.3,1521.9,1908.7,1521.9C1908.7,1521.9,1908.7,1521.9,1908.7,1521.9z M1661.1,617.4c-2.6,0-5.1,0.7-7.3,2.1
			c-116.2,72.1-195.5,191.3-217.6,327.2c-21.9,134.1,14.8,270.3,100.5,373.7c37.8,45.6,115.6,76.6,168.9,80.2
			c13.5,0.9,25.3,1.4,36,1.4c37.6,0,81.6-4.7,87.7-41.6c8.1-48.1-33.4-59.4-88.4-69.1c-11-2-15.6-4.7-19-6.7
			c-2.9-1.7-5.9-3.5-10.5-3.5c-0.4,0-0.9,0-1.3,0c-8.1,0.6-10.4,9.2-12.9,18.3c-1.9,7-4,15-8.5,21.1c1.2-6.3-0.8-12.8-3-20.2
			c-1.9-6.3-4.3-14.1-5.8-24.3c-2.6-17.6-6.3-32.7-24.8-40c-3.2-1.3-6.1-1.9-8.9-1.9c-15.4,0-18.9,16.9-22.3,33.3
			c-4.7,22.6-9,37.4-25.8,37.4c-0.4,0-0.9,0-1.3,0c-16.9-0.7-28-8.1-35-15.5c6.1,2.5,11.6,3.7,16.7,3.7c6.8,0,12.8-2.2,17.7-6.5
			c12-10.4,9.1-31.5,6.3-51.9c-1.1-8.2-2.2-15.9-2.2-22.4c-0.1-7.3,1.2-9.7,2.4-11.8c1.8-3.3,3.2-6.5,1.3-12.4
			c-1.2-3.9-3.8-6.8-7.4-10.8c-5.8-6.4-15.6-17.2-30-43.1c-15.9-28.5-20.1-43.8-22.7-56c-1.4-6.5-5.7-8.8-9.2-8.8
			c-2.2,0-5.6,0.9-8.6,5c-6.8,9.2-18.2,20.2-33.8,20.2c-7.4,0-15-2.4-22.8-7.1c5.5-1.2,10.5-4,15-8.6
			c21.6-21.9,25.1-80.6,24.3-125.9c-1.3-73.1,6.5-100.2,37.8-131.7c2.9-2.9,3.4-5.8,3.3-7.7c-0.3-4.8-3.9-7.7-7.8-10.8
			c-6.5-5.3-13.9-11.1-10.9-25.8c0.8,2.2,2,4.1,3.6,5.7c2.8,2.9,6.6,4.4,10.9,4.4c9.1,0,18.9-6.9,24.4-17.1
			c15-28,40.1-63.9,74.4-75.7c27.7-9.6,53-11.2,69.7-12.3c9-0.6,15.5-1,20.2-2.3c3-0.9,8.1-2.3,8.3-7.5c0.1-5.5-5.6-7.4-9-8.6
			c-2.7-0.9-6.2-1.8-10.2-2.9c-11.7-3.1-27.7-7.4-39-15.3c-4.8-3.4-7.4-5.7-9.7-17C1673.4,622.1,1667.7,617.4,1661.1,617.4z
			 M2041.2,1055.5c43.9,0,100.9,6.8,152.7,59.6c38.6,39.3,59.1,74.4,64.5,110.3c5,33.4-2.4,70.2-24.1,119.3c-1.9,4.2-1.9,8.1,0,10.9
			c1.4,2.2,3.8,3.4,6.4,3.4c2.5,0,4.9-1.1,7.2-3.3c23.1-21.9,138.3-141,138.6-336.5c0.2-126.5-49.2-245.8-139.2-335.9
			c-89.9-90.1-213.2-141.7-338.3-141.7c-19.9,0-40,1.3-59.8,3.8c-2.6,0.3-4.6,1.8-5.6,4.1c-1.7,3.9,0.7,7.1,3.2,10.5
			c2.4,3.3,5.8,7.9,7.6,13.7c-6-6.6-15.3-10.5-26.3-10.5c-10.1,0-20.2,3.3-29.3,9.5c-13.9,9.6-19.9,23.2-16.2,37.4
			c5,19.4,26.6,34.4,53.8,37.1c9.1,0.9,11.4,3.7,13.5,6.1c1.6,1.9,3.9,4.6,8.1,5.2c1,0.1,1.9,0.2,2.8,0.2c8.3,0,12.3-5.7,16.2-11.1
			c2.1-3,4.6-6.5,8.2-9.9c-0.2,0.7-0.3,1.4-0.5,2.2c-0.8,5.1,0.2,9.3,3,12.5c4.9,5.7,13.7,6.2,22.3,6.2c1.5,0,3,0,4.5,0
			c1.5,0,3.1,0,4.6,0c1.9,0,3.5,0,4.9,0.1c3.1,0.1,6.4,0.2,10.1,0.2c5.7,0,11.2-0.1,16.6-0.3c4.9-0.1,9.6-0.3,13.9-0.3
			c8.6,0,19.1,0.4,23.8,3.9c8.6,6.3,11,14.7,12.8,21.4c1.3,4.8,2.5,9,6.2,11.2c2.8,1.7,5.9,1.9,8,1.9c2.2,0,4.6-0.3,7.1-0.5
			c2.9-0.3,6.2-0.7,9.8-0.7c14.1,0,35.5,5.4,59.4,51.8c-1.8-0.1-3.5-0.1-5.2-0.1c-14.2,0-23.2,2.9-27.5,8.8
			c-6.7,9.3-0.5,15.4,5.5,21.2c3.1,3,7,6.8,11.5,12.3c13.8,17.2,28.7,25.9,44.3,25.9c2.7,0,4.9-0.2,6.6-0.4c0.6-0.1,1.1-0.1,1.6-0.2
			c0.7,0,1.3-0.1,1.9-0.1c9.4,0,15.9,4.8,24.1,10.8c8,5.9,17.2,12.6,30.7,15.5c4,0.8,7.5,1.3,10.7,1.3c7.7,0,11.9-2.5,15.3-4.6
			c2.7-1.6,4.5-2.7,8.4-2.7c0.9,0,1.9,0.1,2.9,0.2c15,1.7,26.7,18.3,34.2,29.8c-3.8-1-8.2-2-11.7-2c-1.3,0-5.4,0-8,3
			c-1.5,1.7-2.1,3.9-1.7,6.1c0.5,3.3,2.9,5.4,5.6,7.9c2.9,2.6,6.5,5.9,6.8,9.4c0.2,2-0.3,2.9-3.2,7.4c-1.1,1.7-2.4,3.7-4,6.3
			c-3.8,6.4-2.9,11.2-2.2,14.7c0.2,1.1,0.4,2.1,0.4,3c-3.9,2.2-7.6,5.6-6.4,14.5c1.2,8.2-1.5,13.6-3.9,16.7
			c-0.7,0.9-1.5,1.7-2.2,2.3c-0.4-4.9-2.2-9.9-5.4-14c-3.5-4.5-10.1-10-21.9-10.6l-0.8,0c-1.4-0.1-3.6-0.2-5.8-0.2
			c-3.5,0-12.8,0-14.1,7.4c-0.7,4.1,1.5,7.1,4.6,9.9c-4-2.4-8.4-3.7-13.2-3.7c-1.7,0-3.4,0.2-5.1,0.5c-7.2,1.3-11.4,6.9-10.7,14.4
			c0.9,9.8,10,20.8,21.7,20.8c2.5,0,5-0.5,7.4-1.5l0.7-0.3c5.9-2.5,10.6-4.5,12-9.4c1.3-4.2-0.8-8.1-2.7-10.9
			c-1.3-2-2.8-3.8-4.3-5.4c3.8,3,8.5,7,13.1,12.9c13.6,17.5,20.3,41.2,26.8,64.2c11.5,40.9,23.5,83.1,75.4,83.1c0,0,0.8,0,1.2,0
			c29.1-0.4,44.4-23.6,44.4-46.3c0-10.5-3-19.6-8.2-26.2c2,1.2,3.9,2.7,5.5,4.4c6.3,6.7,9.2,17.1,8.4,30
			c-1.6,25.3-24.6,44.3-44.2,45.6c-1.1,0.1-2.3,0.1-3.5,0.1c-9.7,0-19.7-2.3-26.4-3.9c-4.2-1-7-1.6-9-1.6c-0.4,0-0.9,0-1.3,0.1
			c-3.1,0.4-6.2,3.1-5.8,8c0.6,8.7,13.7,31.4,39.7,31.4c10.5,0,21.6-3.8,33.3-11.4c-7.2,12.3-18.1,18.6-33.6,19.7
			c-0.8,0.1-1.7,0.1-2.5,0.1c-35.2,0-65.7-51.7-79.2-99.7c-5.3-19-8.4-36.3-10.9-50.1c-1.3-7.1-2.4-13.3-3.5-18
			c-2.9-12-9.5-13.3-12.3-13.3c-2.3,0-5.8,0.9-9.3,5c-11,13.2-17.3,16.8-29.3,16.8c-5.9,0-13.5-0.9-23.7-2.4
			c-3-0.4-6.5-1.1-10.3-1.7c-11.7-2.1-26.3-4.6-42.1-4.6l-0.5,0c-9.9,0-28.8-19.5-45.4-36.8c-18-18.6-36.6-37.8-54.7-47
			c-4.3-2.2-8.2-4.2-12-6.2c-27.1-14-43.5-22.4-61.1-22.4c-3.9,0-7.7,0.4-11.8,1.2c-10.2,2.1-19.9,7.7-30.1,13.7
			c-17.3,10-36.8,21.4-66,21.4c-1.3,0-2.7,0-4-0.1c-43.4-1.5-50.2-37.7-51.6-64.8c-0.1-1.8-0.2-3.2-0.3-4.2
			c-0.7-6-4.6-10.2-9.4-10.2c-2.2,0-6.3,0.9-9.1,7c-3.4,7.2-3.5,21.8-0.3,39.1c2,10.8,8.1,19.5,17.8,25c0.1,0,0.1,0.1,0.1,0.1
			c0.3,0.7-0.6,3.9-3.1,6.3c-14.4,13.3-18.9,40.6-11.1,67.9c5.5,19.2,25.4,65.4,91.6,78.1c17.9,3.4,37,5.1,58.4,5.1
			c27.9,0,56.1-2.9,83.3-5.6C1988,1058.3,2015.2,1055.5,2041.2,1055.5z M1962.7,812.5c-22,0-45.9,12.3-57.2,23.9
			c-4.5,4.6-6.7,8.8-6.6,12.8c0.3,10.2,7.7,11.5,14.3,12.8c4.5,0.8,10.7,2,19.4,5.3c22.5,8.6,46.3,26,71.4,44.5
			c38.6,28.3,82.3,60.3,130,64.7c0.8,0.1,1.6,0.1,2.4,0.1c3.3,0,9.3-0.6,12.5-4.6c1.7-2.2,2.4-4.9,1.7-7.7
			c-3.1-14.1-2.7-23.2-2.5-29.2c0.2-6.5,0.5-14.5-9.2-16.5c-30-6-56.3-29.7-81.7-52.6c-27.6-24.9-56.1-50.6-89.8-53.4
			C1965.9,812.5,1964.3,812.5,1962.7,812.5z M2125.2,839.4c-2.2,0-4.3,0.2-6.1,0.7c-6.5,1.7-11.2,5.1-13.6,9.8
			c-2.1,4-2.3,8.8-0.5,13.4c1.6,4.3,5,13.2,13.9,13.2c3.4,0,6.9-1.3,12.1-4.4c5.7-3.4,14-5.6,24.7-6.4c6.5-0.5,8.1-5,8-7.6
			C2163.3,847.7,2135.9,839.4,2125.2,839.4z M1912.1,757.3c0.8,0,1.6,0,2.3,0.1c5.6,0.5,16.4,3.7,27.7,7c16.5,4.9,33.6,9.9,44.7,9.9
			c5.9,0,10-1.5,12.5-4.5l0.2-0.3c0.8-0.9,3.2-3.7,2.1-7.5c-1.3-4-5.4-5-6.9-5.4c-5.3-1.3-15.2-6.8-24-13.3
			c-17.3-12.8-33.5-19.3-48.1-19.3c-21.2,0-33.3,13.4-37.1,21.4c-0.7,1.5-2.8,5.9,0,9.5c2.6,3.2,5.9,4.8,9.9,4.8
			c2.4,0,4.7-0.6,7.2-1.2C1905.5,758,1908.5,757.3,1912.1,757.3z M1725.5,602.1c-3.3,0-6.5,0.4-9.6,1.1
			c-10.8,2.7-19.1,10.5-21.6,20.3c-1.9,7.4,0.1,14.7,5.4,19.6c5.5,5,13,5.2,22.6,5.5c6,0.2,12.7,0.4,21,1.6c8,1.1,15.7,2.5,22.6,3.8
			c10.4,1.9,18.5,3.3,23.8,3.3c2.7,0,6.1-0.3,8.5-2.8c2.6-2.7,2.6-5.5,2.4-6.9c-0.7-4.5-4.7-6.7-9.7-9.6
			c-7.5-4.1-18.7-10.4-25.2-24.8c-4.6-10.2-4.5-24.5,0.3-34c1-2,0.9-4.4-0.2-6.3c-0.7-1.2-2.5-3.1-6.1-3.1c-0.9,0-2,0.1-3,0.4
			c-11.1,2.9-23.9,7.3-37,12.5c-0.4,0.2-0.9,0.3-1.4,0.5c-2.3,0.8-7,2.4-6.6,7.4c0.1,1.2,0.7,5,5.9,6c5.6,1.1,10.2,3.4,13.8,5.8
			C1729.5,602.2,1727.5,602.1,1725.5,602.1z"/>
		<linearGradient id="SVGID_14_" gradientUnits="userSpaceOnUse" x1="1908.6896" y1="1668.5613" x2="1908.6896" y2="1087.5939">
			<stop  offset="4.764476e-03" style="stop-color:#FCFCFC;stop-opacity:0.5"/>
			<stop  offset="0.5377" style="stop-color:#FCFCFC;stop-opacity:0"/>
		</linearGradient>
		<path class="st20" d="M1908.7,1521.9c-22.5,0-45.4-1.5-68.1-4.5c-222.8-29.3-399-205.5-428.4-428.3
			c-9.8-74.3-3.7-147.5,18.2-217.5c20.9-66.9,55-127.7,101.5-180.7c46.6-53.1,102.6-95.1,166.5-124.7
			c66.1-30.6,136.8-46.1,210.3-46.1c67.6,0,133.2,13.2,195,39.4c59.6,25.2,113.2,61.3,159.2,107.4c46,46,82.1,99.6,107.4,159.2
			c26.1,61.8,39.4,127.4,39.4,195c0,67.6-13.2,133.2-39.4,195c-25.2,59.6-61.3,113.2-107.4,159.2c-46,46-99.6,82.1-159.2,107.4
			C2041.9,1508.7,1976.3,1521.9,1908.7,1521.9C1908.7,1521.9,1908.7,1521.9,1908.7,1521.9z M1661.1,617.4c-2.6,0-5.1,0.7-7.3,2.1
			c-116.2,72.1-195.5,191.3-217.6,327.2c-21.9,134.1,14.8,270.3,100.5,373.7c37.8,45.6,115.6,76.6,168.9,80.2
			c13.5,0.9,25.3,1.4,36,1.4c37.6,0,81.6-4.7,87.7-41.6c8.1-48.1-33.4-59.4-88.4-69.1c-11-2-15.6-4.7-19-6.7
			c-2.9-1.7-5.9-3.5-10.5-3.5c-0.4,0-0.9,0-1.3,0c-8.1,0.6-10.4,9.2-12.9,18.3c-1.9,7-4,15-8.5,21.1c1.2-6.3-0.8-12.8-3-20.2
			c-1.9-6.3-4.3-14.1-5.8-24.3c-2.6-17.6-6.3-32.7-24.8-40c-3.2-1.3-6.1-1.9-8.9-1.9c-15.4,0-18.9,16.9-22.3,33.3
			c-4.7,22.6-9,37.4-25.8,37.4c-0.4,0-0.9,0-1.3,0c-16.9-0.7-28-8.1-35-15.5c6.1,2.5,11.6,3.7,16.7,3.7c6.8,0,12.8-2.2,17.7-6.5
			c12-10.4,9.1-31.5,6.3-51.9c-1.1-8.2-2.2-15.9-2.2-22.4c-0.1-7.3,1.2-9.7,2.4-11.8c1.8-3.3,3.2-6.5,1.3-12.4
			c-1.2-3.9-3.8-6.8-7.4-10.8c-5.8-6.4-15.6-17.2-30-43.1c-15.9-28.5-20.1-43.8-22.7-56c-1.4-6.5-5.7-8.8-9.2-8.8
			c-2.2,0-5.6,0.9-8.6,5c-6.8,9.2-18.2,20.2-33.8,20.2c-7.4,0-15-2.4-22.8-7.1c5.5-1.2,10.5-4,15-8.6
			c21.6-21.9,25.1-80.6,24.3-125.9c-1.3-73.1,6.5-100.2,37.8-131.7c2.9-2.9,3.4-5.8,3.3-7.7c-0.3-4.8-3.9-7.7-7.8-10.8
			c-6.5-5.3-13.9-11.1-10.9-25.8c0.8,2.2,2,4.1,3.6,5.7c2.8,2.9,6.6,4.4,10.9,4.4c9.1,0,18.9-6.9,24.4-17.1
			c15-28,40.1-63.9,74.4-75.7c27.7-9.6,53-11.2,69.7-12.3c9-0.6,15.5-1,20.2-2.3c3-0.9,8.1-2.3,8.3-7.5c0.1-5.5-5.6-7.4-9-8.6
			c-2.7-0.9-6.2-1.8-10.2-2.9c-11.7-3.1-27.7-7.4-39-15.3c-4.8-3.4-7.4-5.7-9.7-17C1673.4,622.1,1667.7,617.4,1661.1,617.4z
			 M2041.2,1055.5c43.9,0,100.9,6.8,152.7,59.6c38.6,39.3,59.1,74.4,64.5,110.3c5,33.4-2.4,70.2-24.1,119.3c-1.9,4.2-1.9,8.1,0,10.9
			c1.4,2.2,3.8,3.4,6.4,3.4c2.5,0,4.9-1.1,7.2-3.3c23.1-21.9,138.3-141,138.6-336.5c0.2-126.5-49.2-245.8-139.2-335.9
			c-89.9-90.1-213.2-141.7-338.3-141.7c-19.9,0-40,1.3-59.8,3.8c-2.6,0.3-4.6,1.8-5.6,4.1c-1.7,3.9,0.7,7.1,3.2,10.5
			c2.4,3.3,5.8,7.9,7.6,13.7c-6-6.6-15.3-10.5-26.3-10.5c-10.1,0-20.2,3.3-29.3,9.5c-13.9,9.6-19.9,23.2-16.2,37.4
			c5,19.4,26.6,34.4,53.8,37.1c9.1,0.9,11.4,3.7,13.5,6.1c1.6,1.9,3.9,4.6,8.1,5.2c1,0.1,1.9,0.2,2.8,0.2c8.3,0,12.3-5.7,16.2-11.1
			c2.1-3,4.6-6.5,8.2-9.9c-0.2,0.7-0.3,1.4-0.5,2.2c-0.8,5.1,0.2,9.3,3,12.5c4.9,5.7,13.7,6.2,22.3,6.2c1.5,0,3,0,4.5,0
			c1.5,0,3.1,0,4.6,0c1.9,0,3.5,0,4.9,0.1c3.1,0.1,6.4,0.2,10.1,0.2c5.7,0,11.2-0.1,16.6-0.3c4.9-0.1,9.6-0.3,13.9-0.3
			c8.6,0,19.1,0.4,23.8,3.9c8.6,6.3,11,14.7,12.8,21.4c1.3,4.8,2.5,9,6.2,11.2c2.8,1.7,5.9,1.9,8,1.9c2.2,0,4.6-0.3,7.1-0.5
			c2.9-0.3,6.2-0.7,9.8-0.7c14.1,0,35.5,5.4,59.4,51.8c-1.8-0.1-3.5-0.1-5.2-0.1c-14.2,0-23.2,2.9-27.5,8.8
			c-6.7,9.3-0.5,15.4,5.5,21.2c3.1,3,7,6.8,11.5,12.3c13.8,17.2,28.7,25.9,44.3,25.9c2.7,0,4.9-0.2,6.6-0.4c0.6-0.1,1.1-0.1,1.6-0.2
			c0.7,0,1.3-0.1,1.9-0.1c9.4,0,15.9,4.8,24.1,10.8c8,5.9,17.2,12.6,30.7,15.5c4,0.8,7.5,1.3,10.7,1.3c7.7,0,11.9-2.5,15.3-4.6
			c2.7-1.6,4.5-2.7,8.4-2.7c0.9,0,1.9,0.1,2.9,0.2c15,1.7,26.7,18.3,34.2,29.8c-3.8-1-8.2-2-11.7-2c-1.3,0-5.4,0-8,3
			c-1.5,1.7-2.1,3.9-1.7,6.1c0.5,3.3,2.9,5.4,5.6,7.9c2.9,2.6,6.5,5.9,6.8,9.4c0.2,2-0.3,2.9-3.2,7.4c-1.1,1.7-2.4,3.7-4,6.3
			c-3.8,6.4-2.9,11.2-2.2,14.7c0.2,1.1,0.4,2.1,0.4,3c-3.9,2.2-7.6,5.6-6.4,14.5c1.2,8.2-1.5,13.6-3.9,16.7
			c-0.7,0.9-1.5,1.7-2.2,2.3c-0.4-4.9-2.2-9.9-5.4-14c-3.5-4.5-10.1-10-21.9-10.6l-0.8,0c-1.4-0.1-3.6-0.2-5.8-0.2
			c-3.5,0-12.8,0-14.1,7.4c-0.7,4.1,1.5,7.1,4.6,9.9c-4-2.4-8.4-3.7-13.2-3.7c-1.7,0-3.4,0.2-5.1,0.5c-7.2,1.3-11.4,6.9-10.7,14.4
			c0.9,9.8,10,20.8,21.7,20.8c2.5,0,5-0.5,7.4-1.5l0.7-0.3c5.9-2.5,10.6-4.5,12-9.4c1.3-4.2-0.8-8.1-2.7-10.9
			c-1.3-2-2.8-3.8-4.3-5.4c3.8,3,8.5,7,13.1,12.9c13.6,17.5,20.3,41.2,26.8,64.2c11.5,40.9,23.5,83.1,75.4,83.1c0,0,0.8,0,1.2,0
			c29.1-0.4,44.4-23.6,44.4-46.3c0-10.5-3-19.6-8.2-26.2c2,1.2,3.9,2.7,5.5,4.4c6.3,6.7,9.2,17.1,8.4,30
			c-1.6,25.3-24.6,44.3-44.2,45.6c-1.1,0.1-2.3,0.1-3.5,0.1c-9.7,0-19.7-2.3-26.4-3.9c-4.2-1-7-1.6-9-1.6c-0.4,0-0.9,0-1.3,0.1
			c-3.1,0.4-6.2,3.1-5.8,8c0.6,8.7,13.7,31.4,39.7,31.4c10.5,0,21.6-3.8,33.3-11.4c-7.2,12.3-18.1,18.6-33.6,19.7
			c-0.8,0.1-1.7,0.1-2.5,0.1c-35.2,0-65.7-51.7-79.2-99.7c-5.3-19-8.4-36.3-10.9-50.1c-1.3-7.1-2.4-13.3-3.5-18
			c-2.9-12-9.5-13.3-12.3-13.3c-2.3,0-5.8,0.9-9.3,5c-11,13.2-17.3,16.8-29.3,16.8c-5.9,0-13.5-0.9-23.7-2.4
			c-3-0.4-6.5-1.1-10.3-1.7c-11.7-2.1-26.3-4.6-42.1-4.6l-0.5,0c-9.9,0-28.8-19.5-45.4-36.8c-18-18.6-36.6-37.8-54.7-47
			c-4.3-2.2-8.2-4.2-12-6.2c-27.1-14-43.5-22.4-61.1-22.4c-3.9,0-7.7,0.4-11.8,1.2c-10.2,2.1-19.9,7.7-30.1,13.7
			c-17.3,10-36.8,21.4-66,21.4c-1.3,0-2.7,0-4-0.1c-43.4-1.5-50.2-37.7-51.6-64.8c-0.1-1.8-0.2-3.2-0.3-4.2
			c-0.7-6-4.6-10.2-9.4-10.2c-2.2,0-6.3,0.9-9.1,7c-3.4,7.2-3.5,21.8-0.3,39.1c2,10.8,8.1,19.5,17.8,25c0.1,0,0.1,0.1,0.1,0.1
			c0.3,0.7-0.6,3.9-3.1,6.3c-14.4,13.3-18.9,40.6-11.1,67.9c5.5,19.2,25.4,65.4,91.6,78.1c17.9,3.4,37,5.1,58.4,5.1
			c27.9,0,56.1-2.9,83.3-5.6C1988,1058.3,2015.2,1055.5,2041.2,1055.5z M1962.7,812.5c-22,0-45.9,12.3-57.2,23.9
			c-4.5,4.6-6.7,8.8-6.6,12.8c0.3,10.2,7.7,11.5,14.3,12.8c4.5,0.8,10.7,2,19.4,5.3c22.5,8.6,46.3,26,71.4,44.5
			c38.6,28.3,82.3,60.3,130,64.7c0.8,0.1,1.6,0.1,2.4,0.1c3.3,0,9.3-0.6,12.5-4.6c1.7-2.2,2.4-4.9,1.7-7.7
			c-3.1-14.1-2.7-23.2-2.5-29.2c0.2-6.5,0.5-14.5-9.2-16.5c-30-6-56.3-29.7-81.7-52.6c-27.6-24.9-56.1-50.6-89.8-53.4
			C1965.9,812.5,1964.3,812.5,1962.7,812.5z M2125.2,839.4c-2.2,0-4.3,0.2-6.1,0.7c-6.5,1.7-11.2,5.1-13.6,9.8
			c-2.1,4-2.3,8.8-0.5,13.4c1.6,4.3,5,13.2,13.9,13.2c3.4,0,6.9-1.3,12.1-4.4c5.7-3.4,14-5.6,24.7-6.4c6.5-0.5,8.1-5,8-7.6
			C2163.3,847.7,2135.9,839.4,2125.2,839.4z M1912.1,757.3c0.8,0,1.6,0,2.3,0.1c5.6,0.5,16.4,3.7,27.7,7c16.5,4.9,33.6,9.9,44.7,9.9
			c5.9,0,10-1.5,12.5-4.5l0.2-0.3c0.8-0.9,3.2-3.7,2.1-7.5c-1.3-4-5.4-5-6.9-5.4c-5.3-1.3-15.2-6.8-24-13.3
			c-17.3-12.8-33.5-19.3-48.1-19.3c-21.2,0-33.3,13.4-37.1,21.4c-0.7,1.5-2.8,5.9,0,9.5c2.6,3.2,5.9,4.8,9.9,4.8
			c2.4,0,4.7-0.6,7.2-1.2C1905.5,758,1908.5,757.3,1912.1,757.3z M1725.5,602.1c-3.3,0-6.5,0.4-9.6,1.1
			c-10.8,2.7-19.1,10.5-21.6,20.3c-1.9,7.4,0.1,14.7,5.4,19.6c5.5,5,13,5.2,22.6,5.5c6,0.2,12.7,0.4,21,1.6c8,1.1,15.7,2.5,22.6,3.8
			c10.4,1.9,18.5,3.3,23.8,3.3c2.7,0,6.1-0.3,8.5-2.8c2.6-2.7,2.6-5.5,2.4-6.9c-0.7-4.5-4.7-6.7-9.7-9.6
			c-7.5-4.1-18.7-10.4-25.2-24.8c-4.6-10.2-4.5-24.5,0.3-34c1-2,0.9-4.4-0.2-6.3c-0.7-1.2-2.5-3.1-6.1-3.1c-0.9,0-2,0.1-3,0.4
			c-11.1,2.9-23.9,7.3-37,12.5c-0.4,0.2-0.9,0.3-1.4,0.5c-2.3,0.8-7,2.4-6.6,7.4c0.1,1.2,0.7,5,5.9,6c5.6,1.1,10.2,3.4,13.8,5.8
			C1729.5,602.2,1727.5,602.1,1725.5,602.1z"/>
	</g>
</g>
</svg>
